<svg width="552" height="474" viewBox="0 0 552 474" fill="none" xmlns="http://www.w3.org/2000/svg">
<ellipse cx="264.631" cy="447.45" rx="149.215" ry="26.5499" fill="#A8A6A7"/>
<path d="M197.124 443.539L206.386 367.594L321.435 367.8C324.248 389.548 329.997 434.566 330.491 440.658C330.985 446.75 327.815 449.371 326.169 449.919C274.139 472.147 221.067 459.181 201.034 449.919C196.754 448.602 196.644 445.117 197.124 443.539Z" fill="#14262E"/>
<path d="M197.123 444.157L206.385 367.389H258.867L257.221 385.912C256.878 400.319 256.151 431.685 255.986 441.893C255.821 452.101 247.822 455.751 243.843 456.3C226.061 456.3 210.364 452.184 204.739 450.126C198.482 448.479 197.055 445.46 197.123 444.157Z" fill="#1E3543"/>
<path d="M209.647 384.7C209.71 384.249 210.127 383.936 210.577 383.999L215.329 384.667C217.355 384.951 218.767 386.825 218.482 388.851L210.505 445.611C210.441 446.061 210.025 446.375 209.575 446.312L207.676 446.045C204.074 445.538 201.565 442.208 202.071 438.606L209.647 384.7Z" fill="#FCFDFB"/>
<path d="M305.174 439.218C306.821 436.089 305.312 412.53 304.351 401.142C310.731 425.84 313.819 430.779 315.877 435.513C317.523 439.3 320.953 440.384 322.463 440.452C322.792 446.051 317.523 449.097 314.848 449.92C303.157 454.036 291.179 456.437 286.651 457.123C280.23 458.276 264.492 458.427 257.426 458.358C300.029 457.741 303.116 443.128 305.174 439.218Z" fill="#5A6F80"/>
<path d="M328.227 359.979C328.227 364.765 318.348 351.952 322.464 373.401C312.275 384.664 289.659 392.498 263.396 392.498C238.068 392.498 216.132 385.212 205.463 374.592C208.649 351.335 198.564 365.234 198.564 359.979C198.564 342.02 227.59 327.461 263.396 327.461C299.201 327.461 328.227 342.02 328.227 359.979Z" fill="#04121B"/>
<path d="M203.711 449.714C198.607 448.067 198.154 444.363 198.566 442.716C199.06 442.222 199.869 442.511 200.212 442.716C199.8 446.009 202.064 446.627 203.711 447.656C205.028 448.479 204.26 449.371 203.711 449.714Z" fill="#FDFDFD"/>
<path d="M166.251 349.277C166.086 336.105 194.996 328.97 209.471 327.049C253.927 319.846 275.949 318.199 319.787 325.403C354.858 331.165 363.488 341.662 363.42 346.19C364.408 358.045 334.743 365.536 319.787 367.8C267.922 375.045 224.633 370.819 209.471 367.8C176.212 364.672 166.8 354.148 166.251 349.277Z" fill="#1F3644"/>
<path d="M202.68 344.211C202.576 335.907 230.395 333.406 239.52 332.195C268.54 328.344 269.981 330.106 298.177 332.195C320.521 333.85 327.019 339.41 326.976 342.265C327.598 349.738 308.898 354.461 299.47 355.888C266.774 360.455 239.484 357.791 229.926 355.888C208.96 353.916 203.026 347.281 202.68 344.211Z" fill="#05131C"/>
<path d="M265.75 404.527C265.176 403.953 264.246 403.953 263.671 404.527L254.315 413.883C253.741 414.457 253.741 415.388 254.315 415.962C254.889 416.537 255.82 416.537 256.394 415.962L264.711 407.646L273.027 415.962C273.602 416.537 274.532 416.537 275.107 415.962C275.681 415.388 275.681 414.457 275.107 413.883L265.75 404.527ZM266.181 405.567V405.567H263.241V405.567H266.181Z" fill="#ECB54E"/>
<path d="M281.165 401.791V435.53H276.731L264.652 419.527L252.777 435.53H248.343V401.791H252.165V429.72L264.652 413.665L277.342 429.72V401.791H281.165Z" fill="#A01122"/>
<path d="M168.516 348.248C166.869 340.344 179.493 335.075 186.01 333.429C154.52 348.248 177.777 355.657 198.565 361.831C219.352 368.006 267.512 365.536 283.36 365.947C296.038 366.277 315.398 363.752 323.493 362.449C306.205 366.771 295.708 367.594 288.917 367.8C283.483 367.964 256.467 368.554 243.638 368.829C228.49 369.323 205.494 365.742 195.889 363.889C187.451 361.968 170.162 356.151 168.516 348.248Z" fill="#F3F3F3"/>
<circle cx="173.661" cy="345.778" r="1.44069" fill="#F3F3F3"/>
<path d="M204.943 347.63C212.901 351.335 235.939 358.209 264.423 356.069C276.023 355.759 297.248 354.66 309.805 352.455C313.187 351.603 316.197 350.732 318.758 349.894C317.162 350.876 313.958 351.726 309.805 352.455C284.922 358.728 239.876 364.01 204.943 347.63Z" fill="#F3F3F3"/>
<path d="M350.661 353.393C362.022 348.124 356.904 341.182 352.925 338.369C357.041 340.509 358.756 343.103 359.099 344.132C359.511 350.512 355.601 352.57 351.896 354.834C348.932 356.645 328.159 360.391 318.143 362.037C340.206 357.427 349.015 354.354 350.661 353.393Z" fill="#0F222E"/>
<path d="M323.902 366.36C349.588 360.926 360.811 351.884 363.213 348.042C362.801 350.306 359.961 355.698 351.893 359.156C343.825 362.614 329.871 365.399 323.902 366.36Z" fill="#122631"/>
<path d="M69.0312 297.775C116.519 301.355 183.576 328.747 205.5 348.037C214.33 352.69 235.827 355.643 245.472 356.538L244.428 343.871L172.39 235.74L119.443 220.676C98.3236 238.215 73.2571 283.507 69.0312 297.775Z" fill="url(#paint0_linear_224_536)"/>
<path d="M119.295 220.825C169.408 241.706 222.504 319.709 242.788 356.101C248.635 356.579 254.819 356.738 257.106 356.539L256.062 340.739L227.128 248.865C211.666 220.03 175.642 165.134 155.239 176.231C134.836 187.327 122.775 210.584 119.295 220.825Z" fill="url(#paint1_linear_224_536)"/>
<path d="M154.939 175.932C195.149 209.937 240.102 311.099 257.105 356.39C258.775 356.628 261.281 356.34 262.623 356.241C269.186 285.296 272.855 142.135 236.224 144.76C199.594 147.385 166.772 166.635 154.939 175.932Z" fill="url(#paint2_linear_224_536)"/>
<path d="M303.34 135.961C291.289 194.903 275.897 307.37 269.633 355.494C272.974 355.972 283.354 354.948 287.68 354.749L289.618 352.074C298.386 347 304.682 298.511 384.625 292.861C369.114 246.758 464.866 239.151 473.814 231.405C414.394 155.281 334.71 135.464 303.34 135.961Z" fill="url(#paint3_linear_224_536)"/>
<path d="M235.777 143.865C248.067 181.212 258.746 301.702 262.475 356.24C265.696 356.24 269.435 355.942 270.528 355.942C288.774 310.85 320.164 202.391 303.341 136.408C267.784 135.931 243.483 141.181 235.777 143.865Z" fill="url(#paint4_linear_224_536)"/>
<path d="M313.335 356.987C315.108 355.542 317.131 353.983 319.39 352.336C321.539 350.174 323.302 348.205 322.731 348.644C315.692 352.223 295.885 354.55 286.787 354.749C322.463 281.607 424.797 240.214 471.58 229.177C488.761 250.416 474.314 290.468 471.58 300.908C404.842 301.568 345.897 333.009 319.39 352.336C316.671 355.073 313.335 358.12 313.335 356.987Z" fill="url(#paint5_linear_224_536)"/>
<path d="M302.297 347.292C312.737 333.024 341.761 301.534 374.335 289.722" stroke="white" stroke-width="0.149147"/>
<path d="M173.137 307.172C182.434 311.547 204.636 325.845 219.074 348.038" stroke="white" stroke-width="0.149147"/>
<path d="M208.185 297.925C223.099 310.572 238.461 342.37 244.278 356.688H246.664C236.045 326.62 217.581 304.288 209.676 296.881C196.79 287.216 190.585 295.041 189.094 300.162C189.81 309.946 196.75 308.912 200.131 307.172C183.874 314.182 189.541 282.115 208.185 297.925Z" fill="white"/>
<path d="M253.226 356.092C248.006 340.084 236.611 308.664 232.793 311.05" stroke="white" stroke-width="0.44744"/>
<path d="M277.391 356.539C280.622 347.292 290.277 324.533 303.044 307.47C306.325 303.891 310.919 295.717 303.044 291.661C298.868 291.71 291.142 294.047 293.648 302.996C295.288 306.376 300.866 311.616 310.054 305.531" stroke="white" stroke-width="0.894879"/>
<path d="M266.651 355.644C270.33 333.421 278.016 287.753 279.328 282.861C280.969 276.746 277.688 268.095 271.125 268.095C268.838 268.94 264.742 271.854 266.651 276.746C268.56 281.638 270.429 282.861 271.125 282.861" stroke="white" stroke-width="0.894879"/>
<circle cx="269.633" cy="281.519" r="2.98293" stroke="white" stroke-width="0.894879"/>
<circle cx="229.962" cy="312.84" r="2.98293" stroke="white" stroke-width="0.894879"/>
<path d="M175.371 308.514C175.371 310.711 173.463 312.541 171.046 312.541C168.63 312.541 166.721 310.711 166.721 308.514C166.721 306.317 168.63 304.487 171.046 304.487C173.463 304.487 175.371 306.317 175.371 308.514Z" stroke="white" stroke-width="0.894879"/>
<path d="M362.252 263.174C361.775 261.026 362.451 258.898 362.849 258.103C362.998 259.047 363.416 261.294 363.893 262.726C364.37 264.158 370.555 264.317 373.588 264.218C370.127 264.337 366.975 273.713 365.832 278.386C366.627 274.906 367.025 267.499 362.252 265.709C357.48 263.919 353.9 266.852 352.707 268.543C354.616 263.412 359.866 262.826 362.252 263.174Z" fill="white"/>
<path d="M205.648 257.208C203.739 258.401 202.267 262.279 201.77 264.069C200.104 268.623 196.069 269.997 193.875 270.165C199.967 271.463 203.665 283.048 204.753 288.678C204.037 280.326 210.222 272.272 213.404 269.289C205.767 270.112 203.659 266.649 203.56 264.814C203.321 261.832 205.449 259.097 206.543 258.103C209.526 255.001 214.646 255.418 216.834 256.015C221.01 257.089 222.949 260.837 223.396 262.577C223.396 267.827 221.01 268.742 219.817 268.543C218.504 268.185 218.574 267.101 218.773 266.604C219.012 265.65 220.065 265.709 220.563 265.859C221.994 266.932 220.861 267.797 220.115 268.096C222.494 268.096 221.756 264.964 220.563 264.814C219.608 264.695 218.574 265.063 218.176 265.262C216.983 266.455 217.679 268.245 218.176 268.991C219.847 270.064 221.557 269.438 222.203 268.991C225.305 266.485 224.291 261.881 223.396 259.893C220.652 255.239 215.591 254.076 213.404 254.076C209.705 254.195 206.692 256.214 205.648 257.208Z" fill="white"/>
<rect x="383.729" y="269.289" width="34.602" height="24.7583" rx="2.98293" fill="white"/>
<path d="M397.397 286.014H392.422L391.598 288.394H388.967L393.46 275.884H396.377L400.869 288.394H398.22L397.397 286.014ZM396.717 284.009L394.909 278.783L393.102 284.009H396.717ZM401.904 283.401C401.904 282.399 402.101 281.51 402.495 280.734C402.9 279.959 403.449 279.362 404.141 278.944C404.833 278.527 405.603 278.318 406.45 278.318C407.094 278.318 407.709 278.461 408.293 278.747C408.878 279.022 409.343 279.392 409.689 279.857V275.15H412.231V288.394H409.689V286.927C409.379 287.416 408.944 287.81 408.383 288.108C407.822 288.406 407.172 288.555 406.432 288.555C405.597 288.555 404.833 288.341 404.141 287.911C403.449 287.482 402.9 286.879 402.495 286.103C402.101 285.316 401.904 284.415 401.904 283.401ZM409.707 283.437C409.707 282.828 409.588 282.309 409.349 281.88C409.111 281.438 408.789 281.104 408.383 280.877C407.977 280.639 407.542 280.519 407.076 280.519C406.611 280.519 406.182 280.633 405.788 280.859C405.394 281.086 405.072 281.42 404.821 281.862C404.583 282.291 404.463 282.804 404.463 283.401C404.463 283.997 404.583 284.522 404.821 284.976C405.072 285.417 405.394 285.757 405.788 285.996C406.193 286.235 406.623 286.354 407.076 286.354C407.542 286.354 407.977 286.241 408.383 286.014C408.789 285.775 409.111 285.441 409.349 285.012C409.588 284.57 409.707 284.045 409.707 283.437Z" fill="#B4373F"/>
<mask id="path-36-inside-1_224_536" fill="white">
<path fill-rule="evenodd" clip-rule="evenodd" d="M243.101 267.797C248.538 267.797 252.945 263.39 252.945 257.953C252.945 252.517 248.538 248.11 243.101 248.11C237.665 248.11 233.258 252.517 233.258 257.953C233.258 263.39 237.665 267.797 243.101 267.797ZM243.25 264.814C246.956 264.814 249.961 261.809 249.961 258.103C249.961 254.396 246.956 251.391 243.25 251.391C239.543 251.391 236.538 254.396 236.538 258.103C236.538 261.809 239.543 264.814 243.25 264.814Z"/>
</mask>
<path fill-rule="evenodd" clip-rule="evenodd" d="M243.101 267.797C248.538 267.797 252.945 263.39 252.945 257.953C252.945 252.517 248.538 248.11 243.101 248.11C237.665 248.11 233.258 252.517 233.258 257.953C233.258 263.39 237.665 267.797 243.101 267.797ZM243.25 264.814C246.956 264.814 249.961 261.809 249.961 258.103C249.961 254.396 246.956 251.391 243.25 251.391C239.543 251.391 236.538 254.396 236.538 258.103C236.538 261.809 239.543 264.814 243.25 264.814Z" fill="#04073A"/>
<path d="M252.647 257.953C252.647 263.225 248.373 267.499 243.101 267.499V268.095C248.703 268.095 253.243 263.555 253.243 257.953H252.647ZM243.101 248.408C248.373 248.408 252.647 252.682 252.647 257.953H253.243C253.243 252.352 248.703 247.811 243.101 247.811V248.408ZM233.556 257.953C233.556 252.682 237.83 248.408 243.101 248.408V247.811C237.5 247.811 232.96 252.352 232.96 257.953H233.556ZM243.101 267.499C237.83 267.499 233.556 263.225 233.556 257.953H232.96C232.96 263.555 237.5 268.095 243.101 268.095V267.499ZM249.663 258.103C249.663 261.645 246.791 264.516 243.25 264.516V265.112C247.121 265.112 250.259 261.974 250.259 258.103H249.663ZM243.25 251.689C246.791 251.689 249.663 254.561 249.663 258.103H250.259C250.259 254.231 247.121 251.093 243.25 251.093V251.689ZM236.836 258.103C236.836 254.561 239.708 251.689 243.25 251.689V251.093C239.378 251.093 236.24 254.231 236.24 258.103H236.836ZM243.25 264.516C239.708 264.516 236.836 261.645 236.836 258.103H236.24C236.24 261.974 239.378 265.112 243.25 265.112V264.516Z" fill="#11152B" mask="url(#path-36-inside-1_224_536)"/>
<path d="M228.633 275.105C228.633 269.617 232.113 265.063 233.853 263.472C239.342 265.142 248.271 264.168 252.049 263.472C256.106 265.858 258.015 271.028 258.462 273.315C258.104 276.895 259.208 280.077 259.805 281.22C260.699 282.712 261.952 286.53 259.805 289.871C257.657 293.211 253.739 294.544 252.049 294.792C241.161 293.898 237.731 294.792 235.941 294.792C234.151 294.792 228.036 293.45 226.992 289.871C226.157 287.007 226.644 284.501 226.992 283.606C228.186 281.22 228.583 276.945 228.633 275.105Z" fill="#04073A" stroke="#11152B" stroke-width="0.298293"/>
<path d="M233.109 257.954C232.99 260.101 233.457 262.428 233.706 263.323C240.626 265.232 249.018 264.118 252.349 263.323C253.065 262.368 253.343 259.346 253.393 257.954C241.461 260.34 234.899 258.948 233.109 257.954Z" fill="#D72E33" stroke="#11152B" stroke-width="0.298293"/>
<path d="M243.55 264.367L243.4 259.296C246.383 259.177 251.305 258.351 253.393 257.954C253.393 260.579 252.697 262.627 252.349 263.323C250.679 263.8 245.787 264.218 243.55 264.367Z" fill="#6A0C1F"/>
<path d="M247.88 282.112C247.88 282.732 247.719 283.317 247.397 283.866C247.087 284.403 246.622 284.85 246.001 285.208C245.393 285.554 244.671 285.757 243.835 285.817V287.266H242.69V285.799C241.497 285.691 240.536 285.333 239.809 284.725C239.081 284.104 238.705 283.269 238.681 282.219H241.366C241.437 283.078 241.879 283.597 242.69 283.776V280.358C241.831 280.143 241.139 279.928 240.614 279.714C240.089 279.499 239.636 279.153 239.254 278.675C238.872 278.198 238.681 277.548 238.681 276.725C238.681 275.687 239.051 274.839 239.791 274.183C240.542 273.527 241.509 273.151 242.69 273.056V271.606H243.835V273.056C244.981 273.151 245.894 273.497 246.574 274.094C247.266 274.69 247.654 275.514 247.737 276.564H245.035C244.999 276.218 244.874 275.919 244.659 275.669C244.456 275.406 244.182 275.221 243.835 275.114V278.497C244.73 278.723 245.434 278.944 245.947 279.159C246.472 279.362 246.926 279.702 247.308 280.179C247.689 280.644 247.88 281.289 247.88 282.112ZM241.294 276.599C241.294 276.993 241.413 277.315 241.652 277.566C241.891 277.804 242.237 278.001 242.69 278.156V275.06C242.261 275.12 241.92 275.281 241.67 275.543C241.419 275.806 241.294 276.158 241.294 276.599ZM243.835 283.812C244.289 283.729 244.641 283.544 244.891 283.257C245.154 282.971 245.285 282.625 245.285 282.219C245.285 281.825 245.16 281.509 244.909 281.271C244.659 281.032 244.301 280.835 243.835 280.68V283.812Z" fill="url(#paint6_linear_224_536)"/>
<rect x="418.332" y="217.087" width="59.062" height="44.1474" rx="1.78976" fill="#0C1127"/>
<path d="M456.166 229.936C455.921 231.642 455.505 233.283 454.871 235.785C453.909 233.091 452.9 233.821 451.609 234.498C443.535 238.729 435.043 241.676 425.89 242.442C425.539 242.472 425.183 242.446 424.598 242.446C424.598 237.636 424.571 232.906 424.654 228.179C424.66 227.829 425.458 227.492 426.248 226.863C426.248 231.819 426.248 236.125 426.248 240.658C435.597 239.456 444.256 236.818 452.224 231.864C451.592 231.245 451.101 230.765 450.189 229.872C452.578 229.872 454.286 229.872 456.166 229.936Z" fill="#E3E4E8"/>
<path d="M470.012 254.961C469.989 255.153 469.966 255.345 469.935 255.681C468.268 256.014 467.786 255.076 467.793 253.627C467.838 244.148 467.895 234.669 467.889 225.19C467.888 223.903 467.578 222.627 469.752 222.954C469.929 222.953 469.934 222.954 469.956 223.13C469.97 224.93 469.952 226.555 469.955 228.179C469.972 237.106 469.993 246.034 470.012 254.961Z" fill="#5A0C20"/>
<path d="M453.158 255.147C453.104 250.071 453.156 245.181 453.073 240.293C453.045 238.656 453.794 238.42 455.173 238.425C456.578 238.43 457.044 238.926 457.019 240.329C456.944 244.571 456.989 248.814 456.987 253.057C456.985 255.848 456.076 256.396 453.158 255.147Z" fill="#D72E33"/>
<path d="M462.969 255.666C462.665 255.704 462.361 255.743 461.869 255.6C461.411 254.698 460.934 253.984 460.91 253.255C460.82 250.555 460.833 247.849 460.895 245.148C460.981 241.351 461.131 237.556 461.286 233.761C461.323 232.856 460.83 231.618 462.538 231.593C464.193 231.568 463.88 232.729 463.882 233.686C463.893 239.798 463.936 245.91 463.845 252.02C463.827 253.239 463.275 254.451 462.969 255.666Z" fill="#DB262A"/>
<path d="M445.429 241.39C446.214 241.312 447.064 241.012 447.764 241.219C448.403 241.408 449.332 242.125 449.356 242.645C449.528 246.38 449.422 250.128 449.573 253.865C449.648 255.735 448.578 255.723 447.259 255.817C445.738 255.926 445.249 255.374 445.289 253.852C445.394 249.889 445.348 245.923 445.398 241.721C445.434 241.483 445.429 241.39 445.429 241.39Z" fill="#C62C2E"/>
<path d="M463.146 255.702C463.273 254.45 463.826 253.239 463.844 252.02C463.935 245.91 463.892 239.798 463.881 233.686C463.879 232.729 464.192 231.568 462.537 231.592C460.829 231.618 461.322 232.856 461.285 233.761C461.13 237.556 460.98 241.351 460.893 245.147C460.832 247.849 460.819 250.555 460.909 253.254C460.933 253.984 461.409 254.698 461.715 255.575C461.31 255.249 460.487 254.772 460.482 254.286C460.409 246.944 460.447 239.601 460.451 232.258C460.453 230.468 461.72 230.727 462.878 230.671C464.19 230.608 464.686 231.17 464.667 232.452C464.559 239.717 464.506 246.984 464.355 254.248C464.344 254.752 463.683 255.242 463.146 255.702Z" fill="#AA2731"/>
<path d="M439.291 243.715C441.227 243.408 441.933 243.997 441.822 245.89C441.663 248.612 441.697 251.356 441.837 254.081C441.932 255.922 440.797 255.74 439.63 255.83C438.38 255.926 437.784 255.573 437.824 254.182C437.909 251.237 437.799 248.286 437.924 245.343C437.947 244.787 438.686 244.262 439.291 243.715ZM438.367 250.522C438.372 251.6 438.225 252.711 438.447 253.742C438.553 254.23 439.316 254.7 439.881 254.902C440.098 254.98 440.898 254.303 440.908 253.954C440.988 251.225 440.993 248.49 440.875 245.763C440.858 245.367 440.064 245.005 439.63 244.627C439.342 245.037 438.869 245.418 438.8 245.862C438.581 247.27 438.512 248.701 438.367 250.522Z" fill="#B84B47"/>
<path d="M434.01 245.461C434.108 248.34 434.167 251.211 434.361 254.072C434.484 255.892 433.315 255.749 432.135 255.82C430.87 255.896 430.051 255.672 430.146 254.11C430.256 252.321 430.172 250.521 430.224 248.727C430.318 245.467 430.334 245.468 433.815 245.482C434.003 245.484 434.028 245.45 434.01 245.461ZM432.481 246.344C431.988 246.891 431.129 247.402 431.07 247.993C430.884 249.845 430.92 251.732 431.05 253.594C431.084 254.074 431.779 254.509 432.171 254.964C432.644 254.536 433.471 254.148 433.525 253.672C433.701 252.109 433.682 250.508 433.567 248.934C433.504 248.084 433.094 247.259 432.481 246.344Z" fill="#B84B47"/>
<path d="M466.651 225.181C465.581 225.376 464.642 225.449 463.703 225.523C463.646 224.598 463.31 223.553 463.638 222.795C463.832 222.347 465.206 222.002 465.821 222.23C467.048 222.683 467.334 223.815 466.651 225.181Z" fill="#F6F1ED"/>
<path d="M426.227 255.381C425.739 255.364 425.26 255.364 424.789 255.364C424.545 251.7 424.726 251.068 426.262 250.718C426.262 252.167 426.262 253.574 426.235 255.176C426.207 255.371 426.235 255.399 426.227 255.381Z" fill="#E3E4E8"/>
<path d="M470.174 254.915C469.993 246.034 469.972 237.107 469.955 228.179C469.952 226.555 469.97 224.931 469.956 223.132C470.351 223.495 471.131 224.034 471.127 224.568C471.096 229.352 470.88 234.134 470.814 238.918C470.75 243.503 470.819 248.091 470.777 252.676C470.771 253.408 470.49 254.138 470.174 254.915Z" fill="#121125"/>
<path d="M438.375 250.323C438.511 248.701 438.58 247.27 438.8 245.862C438.869 245.418 439.341 245.037 439.629 244.627C440.064 245.005 440.857 245.367 440.875 245.763C440.993 248.49 440.988 251.225 440.908 253.954C440.898 254.302 440.098 254.98 439.88 254.902C439.316 254.7 438.552 254.23 438.447 253.742C438.225 252.711 438.371 251.6 438.375 250.323Z" fill="#E03631"/>
<path d="M432.661 246.383C433.094 247.259 433.505 248.084 433.567 248.934C433.682 250.508 433.701 252.109 433.525 253.672C433.471 254.148 432.644 254.536 432.171 254.965C431.779 254.509 431.084 254.075 431.05 253.594C430.92 251.733 430.884 249.845 431.07 247.993C431.13 247.402 431.988 246.891 432.661 246.383Z" fill="#EA3831"/>
<path d="M513.6 205.774C513.6 207.221 513.225 208.585 512.473 209.866C511.749 211.119 510.663 212.163 509.215 212.998C507.796 213.806 506.111 214.279 504.162 214.418V217.801H501.49V214.376C498.706 214.126 496.464 213.29 494.766 211.871C493.068 210.423 492.191 208.474 492.135 206.024H498.399C498.566 208.029 499.597 209.24 501.49 209.657V201.681C499.485 201.18 497.87 200.679 496.645 200.178C495.42 199.676 494.362 198.869 493.472 197.755C492.581 196.642 492.135 195.124 492.135 193.203C492.135 190.781 492.998 188.805 494.724 187.273C496.478 185.742 498.733 184.865 501.49 184.642V181.26H504.162V184.642C506.835 184.865 508.965 185.673 510.552 187.065C512.167 188.457 513.071 190.378 513.266 192.828H506.96C506.877 192.02 506.585 191.324 506.083 190.74C505.61 190.127 504.97 189.696 504.162 189.445V197.338C506.25 197.867 507.893 198.382 509.09 198.883C510.315 199.356 511.373 200.15 512.264 201.263C513.155 202.349 513.6 203.853 513.6 205.774ZM498.232 192.911C498.232 193.83 498.511 194.582 499.068 195.166C499.624 195.723 500.432 196.182 501.49 196.544V189.32C500.487 189.459 499.694 189.835 499.109 190.447C498.525 191.06 498.232 191.881 498.232 192.911ZM504.162 209.741C505.22 209.546 506.042 209.114 506.626 208.446C507.239 207.778 507.545 206.971 507.545 206.024C507.545 205.105 507.253 204.368 506.668 203.811C506.083 203.254 505.248 202.795 504.162 202.433V209.741Z" fill="#0C1127"/>
<path d="M359.951 189.891C358.431 188.913 357.679 187.547 358.287 185.788C358.876 184.085 360.346 183.689 362.013 183.69C376.527 183.695 391.04 183.672 405.554 183.68C407.972 183.681 409.48 184.923 409.51 186.803C409.543 188.88 408.147 190.026 405.519 190.036C402.084 190.05 398.648 190.04 394.884 189.895C394.283 189.704 394.01 189.62 393.737 189.62C383.824 189.613 373.911 189.608 363.998 189.628C363.473 189.63 362.949 189.857 362.424 189.979C361.973 190.002 361.522 190.026 360.776 190.027C360.305 189.967 360.128 189.929 359.951 189.891Z" fill="#0C132A"/>
<path d="M398.627 200.967C398.815 200.934 399.002 200.902 399.429 201.036C400.446 201.117 401.223 201.031 402.001 200.945C402.185 200.908 402.368 200.871 402.801 201.015C404.515 201.139 405.981 201.081 407.447 201.022C410.161 202.221 410.465 204.293 408 206.404C406.932 206.359 406.116 206.443 405.299 206.448C395.217 206.516 385.135 206.629 375.054 206.538C374.1 206.529 372.827 205.406 372.292 204.465C371.569 203.193 372.789 202.423 373.866 202.018C374.757 201.683 375.739 201.442 376.684 201.429C381.027 201.369 385.371 201.422 389.715 201.383C390.441 201.377 391.165 201.116 391.889 200.973C392.89 200.941 393.891 200.909 395.185 201.046C396.527 201.132 397.577 201.049 398.627 200.967Z" fill="#0D142E"/>
<path d="M371.394 196.754C371.394 196.754 371.425 196.75 371.436 196.737C371.027 193.624 371.903 192.564 374.974 192.558C381.7 192.544 388.426 192.557 395.152 192.559C396.948 192.559 398.143 193.356 398.266 195.215C398.391 197.098 397.184 198.235 395.497 198.235C387.872 198.233 380.248 198.055 372.476 197.867C372.327 197.794 372.312 197.795 372.242 197.684C371.913 197.301 371.653 197.027 371.394 196.754Z" fill="#11152B"/>
<rect x="253.229" y="188.302" width="52.4996" height="34.3037" rx="2.83378" fill="#0D112A" stroke="#11152B" stroke-width="0.298293"/>
<circle cx="260.685" cy="194.865" r="3.13208" fill="white"/>
<rect x="264.713" y="193.224" width="6.86074" height="3.28122" fill="white"/>
<rect x="259.645" y="200.98" width="38.7781" height="3.28122" rx="1.64061" fill="#312D46"/>
<rect x="259.645" y="207.244" width="38.7781" height="3.28122" rx="1.64061" fill="#EC1E35"/>
<rect x="259.645" y="213.508" width="38.7781" height="3.28122" rx="1.64061" fill="#EC1E35"/>
<rect x="424.301" y="139.829" width="53.0962" height="34.602" rx="2.98293" fill="#F9D4AA"/>
<path d="M429.073 174.431L450.998 163.394L424.301 147.137V172.045C424.301 173.596 425.693 174.282 426.389 174.431H429.073Z" fill="#EDBB88"/>
<path d="M472.626 174.58L451.149 163.394L477.398 147.286V172.194C477.398 173.745 476.006 174.431 475.31 174.58H472.626Z" fill="#F4BF9D"/>
<path d="M424.301 142.812C424.301 141.165 425.636 139.829 427.284 139.829H474.414C476.061 139.829 477.397 141.165 477.397 142.812V146.988H424.301V142.812Z" fill="#D32328"/>
<path d="M448.91 162.649L424.301 146.988C432.007 150.369 447.418 157.578 448.91 158.622C450.292 159.589 451.793 159.119 452.489 158.622C456.188 155.932 470.636 149.745 477.397 146.988C469.79 151.811 454.16 161.694 452.489 162.649C450.819 163.603 449.407 163.046 448.91 162.649Z" fill="#E57C09"/>
<path d="M448.91 162.649L449.207 159.069C450.59 160.037 451.794 159.119 452.49 158.622C456.189 155.932 470.636 149.745 477.397 146.988C469.791 151.811 454.16 161.694 452.49 162.649C450.819 163.603 449.407 163.046 448.91 162.649Z" fill="#D32328"/>
<ellipse cx="499.915" cy="135.792" rx="9.99281" ry="10.1003" fill="#C28834"/>
<ellipse cx="499.377" cy="135.577" rx="9.45557" ry="9.67047" fill="#ECB54E"/>
<path d="M498.088 127.196C492.673 128.485 491.605 132.747 491.748 134.717C492.178 135.061 492.429 134.86 492.501 134.717C492.93 129.903 496.405 128.342 498.088 128.163C498.69 127.647 498.339 127.303 498.088 127.196Z" fill="white"/>
<path d="M503.607 138.594C503.607 139.115 503.472 139.606 503.201 140.068C502.941 140.519 502.549 140.895 502.028 141.196C501.517 141.487 500.91 141.657 500.208 141.707V142.926H499.245V141.692C498.242 141.602 497.435 141.301 496.823 140.79C496.211 140.268 495.895 139.566 495.875 138.684H498.132C498.192 139.406 498.563 139.842 499.245 139.993V137.119C498.523 136.939 497.941 136.758 497.5 136.578C497.059 136.397 496.678 136.106 496.357 135.705C496.036 135.304 495.875 134.758 495.875 134.066C495.875 133.193 496.186 132.481 496.808 131.93C497.44 131.378 498.252 131.062 499.245 130.982V129.763H500.208V130.982C501.171 131.062 501.938 131.353 502.509 131.854C503.091 132.356 503.417 133.048 503.487 133.93H501.216C501.186 133.639 501.08 133.389 500.9 133.178C500.729 132.957 500.499 132.802 500.208 132.712V135.555C500.96 135.745 501.552 135.931 501.983 136.111C502.424 136.282 502.805 136.568 503.126 136.969C503.447 137.36 503.607 137.902 503.607 138.594ZM498.072 133.96C498.072 134.291 498.172 134.562 498.373 134.773C498.573 134.973 498.864 135.139 499.245 135.269V132.667C498.884 132.717 498.598 132.852 498.388 133.073C498.177 133.293 498.072 133.589 498.072 133.96ZM500.208 140.023C500.589 139.952 500.885 139.797 501.095 139.556C501.316 139.316 501.426 139.025 501.426 138.684C501.426 138.353 501.321 138.087 501.11 137.887C500.9 137.686 500.599 137.52 500.208 137.39V140.023Z" fill="white"/>
<ellipse cx="177.46" cy="98.4923" rx="17.4501" ry="17.6378" fill="#C28834"/>
<ellipse cx="176.522" cy="98.1167" rx="16.512" ry="16.8872" fill="#ECB54E"/>
<path d="M174.269 83.4812C164.813 85.7328 162.949 93.1757 163.199 96.6157C163.949 97.2162 164.387 96.8659 164.512 96.6157C165.263 88.2096 171.33 85.4827 174.269 85.1699C175.32 84.2693 174.707 83.6688 174.269 83.4812Z" fill="white"/>
<path d="M183.91 102.698C183.91 103.609 183.674 104.467 183.201 105.272C182.746 106.06 182.063 106.717 181.152 107.242C180.259 107.75 179.199 108.048 177.973 108.136V110.263H176.292V108.109C174.541 107.952 173.131 107.426 172.063 106.533C170.995 105.623 170.443 104.397 170.408 102.856H174.348C174.453 104.116 175.101 104.878 176.292 105.141V100.124C175.031 99.8084 174.015 99.4931 173.245 99.1779C172.474 98.8627 171.809 98.3548 171.248 97.6543C170.688 96.9538 170.408 95.9994 170.408 94.791C170.408 93.2674 170.951 92.024 172.037 91.0608C173.14 90.0976 174.558 89.5459 176.292 89.4058V87.278H177.973V89.4058C179.655 89.5459 180.994 90.0538 181.993 90.9294C183.008 91.8051 183.577 93.0134 183.7 94.5546H179.733C179.681 94.0467 179.497 93.6089 179.182 93.2411C178.884 92.8558 178.481 92.5844 177.973 92.4268V97.3916C179.287 97.7244 180.32 98.0483 181.073 98.3636C181.844 98.6613 182.509 99.1604 183.07 99.8609C183.63 100.544 183.91 101.49 183.91 102.698ZM174.243 94.6071C174.243 95.185 174.418 95.6579 174.769 96.0256C175.119 96.3759 175.627 96.6648 176.292 96.8925V92.348C175.662 92.4355 175.163 92.6719 174.795 93.0572C174.427 93.4425 174.243 93.9591 174.243 94.6071ZM177.973 105.194C178.639 105.071 179.155 104.799 179.523 104.379C179.909 103.959 180.101 103.451 180.101 102.856C180.101 102.278 179.917 101.814 179.55 101.463C179.182 101.113 178.656 100.824 177.973 100.596V105.194Z" fill="#111A49"/>
<rect x="132.863" y="153.849" width="55.4825" height="66.8176" rx="2.98293" fill="#090B31"/>
<path d="M132.863 156.832C132.863 155.185 134.199 153.849 135.846 153.849H185.363C187.01 153.849 188.346 155.185 188.346 156.832V164.289H132.863V156.832Z" fill="#D81D26"/>
<rect x="137.936" y="169.062" width="20.5822" height="32.8122" rx="0.894879" fill="#E92926"/>
<rect x="163.291" y="169.062" width="20.5822" height="32.8122" rx="0.894879" fill="#E92926"/>
<path d="M152.849 196.654V193.97H145.541V191.881H152.849L152.551 174.431H144.347V177.265H141.514V172.492H155.086V198.444H141.514V179.502H146.883V177.265H150.015V188.899H147.778L146.436 186.214H143.9V196.654H152.849Z" fill="#11112B"/>
<rect x="168.658" y="177.414" width="9.54538" height="1.49147" rx="0.745733" fill="white"/>
<rect x="168.658" y="179.801" width="8.94879" height="1.49147" rx="0.745733" fill="white"/>
<rect x="168.658" y="182.187" width="7.45732" height="1.49147" rx="0.745733" fill="white"/>
<rect x="168.658" y="184.573" width="6.56245" height="1.49147" rx="0.745733" fill="white"/>
<rect x="168.658" y="186.959" width="5.96586" height="1.49147" rx="0.745733" fill="white"/>
<rect x="168.658" y="189.346" width="5.36927" height="1.49147" rx="0.745733" fill="white"/>
<rect x="138.529" y="207.244" width="19.9856" height="2.08805" rx="0.298293" fill="white"/>
<rect x="163.588" y="207.244" width="19.389" height="2.08805" rx="0.298293" fill="#E92926"/>
<rect x="138.529" y="213.209" width="19.9856" height="2.08805" rx="0.298293" fill="white"/>
<rect x="163.588" y="213.209" width="19.389" height="2.08805" rx="0.298293" fill="#E92926"/>
<circle cx="140.319" cy="159.517" r="1.78976" fill="white"/>
<path d="M149.847 157.593V161.34H149.095V158.903L148.091 161.34H147.522L146.513 158.903V161.34H145.761V157.593H146.615L147.807 160.379L148.999 157.593H149.847ZM152.888 160.626H151.396L151.149 161.34H150.359L151.707 157.587H152.582L153.93 161.34H153.135L152.888 160.626ZM152.684 160.025L152.142 158.457L151.6 160.025H152.684ZM157.043 158.72C156.957 158.563 156.839 158.443 156.689 158.36C156.538 158.278 156.363 158.237 156.163 158.237C155.941 158.237 155.744 158.287 155.572 158.387C155.4 158.487 155.266 158.631 155.169 158.817C155.073 159.003 155.024 159.218 155.024 159.461C155.024 159.712 155.073 159.93 155.169 160.116C155.27 160.302 155.407 160.445 155.583 160.546C155.758 160.646 155.962 160.696 156.195 160.696C156.481 160.696 156.716 160.621 156.898 160.471C157.081 160.317 157.201 160.104 157.258 159.832H155.969V159.257H157.999V159.912C157.949 160.173 157.841 160.415 157.677 160.637C157.512 160.859 157.299 161.038 157.038 161.174C156.78 161.306 156.49 161.373 156.168 161.373C155.806 161.373 155.479 161.292 155.185 161.131C154.895 160.966 154.666 160.739 154.498 160.449C154.334 160.159 154.251 159.83 154.251 159.461C154.251 159.092 154.334 158.763 154.498 158.473C154.666 158.18 154.895 157.952 155.185 157.791C155.479 157.627 155.805 157.544 156.163 157.544C156.585 157.544 156.952 157.648 157.263 157.856C157.575 158.06 157.79 158.348 157.908 158.72H157.043ZM159.307 157.593V161.34H158.555V157.593H159.307ZM159.867 159.461C159.867 159.092 159.949 158.763 160.114 158.473C160.282 158.18 160.509 157.952 160.796 157.791C161.086 157.627 161.41 157.544 161.768 157.544C162.186 157.544 162.553 157.652 162.868 157.866C163.183 158.081 163.403 158.378 163.529 158.758H162.664C162.578 158.579 162.457 158.445 162.299 158.355C162.145 158.266 161.966 158.221 161.762 158.221C161.544 158.221 161.349 158.273 161.177 158.376C161.009 158.477 160.876 158.62 160.78 158.806C160.687 158.992 160.64 159.211 160.64 159.461C160.64 159.708 160.687 159.926 160.78 160.116C160.876 160.302 161.009 160.447 161.177 160.551C161.349 160.651 161.544 160.701 161.762 160.701C161.966 160.701 162.145 160.657 162.299 160.567C162.457 160.474 162.578 160.338 162.664 160.159H163.529C163.403 160.542 163.183 160.841 162.868 161.056C162.557 161.267 162.19 161.373 161.768 161.373C161.41 161.373 161.086 161.292 160.796 161.131C160.509 160.966 160.282 160.739 160.114 160.449C159.949 160.159 159.867 159.83 159.867 159.461ZM168.257 157.593V161.34H167.505V158.903L166.501 161.34H165.932L164.922 158.903V161.34H164.171V157.593H165.025L166.216 160.379L167.408 157.593H168.257ZM169.752 158.199V159.139H171.013V159.735H169.752V160.728H171.175V161.34H169V157.587H171.175V158.199H169.752ZM173.168 157.593C173.562 157.593 173.907 157.67 174.204 157.823C174.505 157.977 174.736 158.198 174.897 158.484C175.061 158.767 175.144 159.096 175.144 159.472C175.144 159.848 175.061 160.177 174.897 160.46C174.736 160.739 174.505 160.956 174.204 161.109C173.907 161.263 173.562 161.34 173.168 161.34H171.858V157.593H173.168ZM173.141 160.701C173.535 160.701 173.839 160.594 174.054 160.379C174.268 160.164 174.376 159.862 174.376 159.472C174.376 159.082 174.268 158.777 174.054 158.559C173.839 158.337 173.535 158.226 173.141 158.226H172.609V160.701H173.141ZM176.458 157.593V161.34H175.706V157.593H176.458ZM179.499 160.626H178.006L177.759 161.34H176.97L178.318 157.587H179.193L180.54 161.34H179.746L179.499 160.626ZM179.295 160.025L178.752 158.457L178.21 160.025H179.295Z" fill="white"/>
<rect x="95.5801" y="271.376" width="52.7979" height="33.1105" rx="2.98293" fill="#0D132D"/>
<path d="M106.766 315.226L111.837 304.636H129.883L106.766 315.226Z" fill="#0D132D"/>
<rect x="101.545" y="277.641" width="40.5678" height="20.2839" rx="2.98293" fill="#BE0C22"/>
<path d="M109.477 293.892C108.528 293.892 107.677 293.738 106.925 293.43C106.173 293.121 105.569 292.665 105.112 292.061C104.668 291.457 104.434 290.729 104.41 289.879H107.776C107.825 290.36 107.991 290.729 108.275 290.988C108.558 291.235 108.928 291.358 109.384 291.358C109.853 291.358 110.223 291.253 110.494 291.044C110.765 290.822 110.901 290.52 110.901 290.138C110.901 289.817 110.79 289.552 110.568 289.342C110.359 289.133 110.093 288.96 109.773 288.825C109.465 288.689 109.021 288.535 108.441 288.362C107.603 288.103 106.919 287.844 106.388 287.585C105.858 287.326 105.402 286.944 105.02 286.439C104.638 285.933 104.447 285.274 104.447 284.46C104.447 283.252 104.884 282.308 105.76 281.63C106.635 280.94 107.776 280.595 109.181 280.595C110.611 280.595 111.764 280.94 112.639 281.63C113.515 282.308 113.983 283.258 114.045 284.478H110.624C110.599 284.059 110.445 283.732 110.161 283.498C109.878 283.252 109.514 283.128 109.07 283.128C108.688 283.128 108.38 283.233 108.145 283.443C107.911 283.64 107.794 283.93 107.794 284.312C107.794 284.731 107.991 285.058 108.386 285.292C108.78 285.526 109.397 285.779 110.235 286.05C111.074 286.334 111.752 286.605 112.27 286.864C112.8 287.123 113.256 287.499 113.638 287.992C114.02 288.485 114.211 289.12 114.211 289.897C114.211 290.637 114.02 291.309 113.638 291.913C113.268 292.517 112.726 292.998 112.011 293.356C111.296 293.713 110.451 293.892 109.477 293.892ZM119.32 283.313V285.939H123.555V288.381H119.32V291.229H124.11V293.762H116.158V280.78H124.11V283.313H119.32ZM132.303 293.892C131.083 293.892 129.961 293.608 128.937 293.041C127.926 292.474 127.119 291.685 126.515 290.674C125.923 289.651 125.627 288.504 125.627 287.234C125.627 285.964 125.923 284.824 126.515 283.813C127.119 282.802 127.926 282.012 128.937 281.445C129.961 280.878 131.083 280.595 132.303 280.595C133.524 280.595 134.64 280.878 135.651 281.445C136.674 282.012 137.476 282.802 138.055 283.813C138.647 284.824 138.943 285.964 138.943 287.234C138.943 288.504 138.647 289.651 138.055 290.674C137.463 291.685 136.662 292.474 135.651 293.041C134.64 293.608 133.524 293.892 132.303 293.892ZM132.303 291.007C133.339 291.007 134.165 290.662 134.782 289.971C135.41 289.281 135.725 288.368 135.725 287.234C135.725 286.087 135.41 285.175 134.782 284.497C134.165 283.806 133.339 283.461 132.303 283.461C131.255 283.461 130.417 283.8 129.788 284.478C129.172 285.156 128.863 286.075 128.863 287.234C128.863 288.381 129.172 289.299 129.788 289.99C130.417 290.668 131.255 291.007 132.303 291.007Z" fill="white"/>
<rect x="61.8711" y="220.667" width="45.0422" height="32.5139" rx="1.49146" fill="#061623"/>
<circle cx="96.3258" cy="233.792" r="2.38634" fill="#E8372F"/>
<path d="M68.4355 245.425L79.7196 233.848C79.8314 233.733 80.0139 233.727 80.1329 233.835L88.7949 241.645C88.9178 241.755 89.1073 241.745 89.2174 241.622L96.3259 233.643" stroke="#E8372F" stroke-width="3.28122"/>
<ellipse cx="81.8566" cy="174.581" rx="14.6164" ry="14.7655" fill="url(#paint7_linear_224_536)"/>
<path d="M83.1423 165.671C84.5972 165.671 85.8671 165.949 86.9521 166.504C88.0371 167.046 88.8693 167.817 89.4488 168.815C90.0406 169.802 90.3365 170.942 90.3365 172.237C90.3365 173.285 90.1516 174.259 89.7817 175.159C89.4241 176.059 88.8878 176.78 88.1727 177.323C87.4699 177.853 86.6315 178.118 85.6575 178.118C85.004 178.118 84.4615 177.988 84.03 177.729C83.6108 177.471 83.3272 177.107 83.1793 176.638C82.834 177.119 82.3902 177.495 81.8477 177.766C81.3052 178.025 80.7134 178.155 80.0723 178.155C79.1599 178.155 78.4386 177.884 77.9084 177.341C77.3906 176.786 77.1317 176.034 77.1317 175.085C77.1317 174.185 77.3166 173.34 77.6865 172.551C78.0564 171.75 78.5681 171.109 79.2215 170.628C79.875 170.147 80.6086 169.906 81.4223 169.906C82.458 169.906 83.1608 170.276 83.5307 171.016L83.6971 170.036H86.2493L85.4356 174.678C85.3986 174.9 85.3801 175.097 85.3801 175.27C85.3801 175.812 85.6205 176.084 86.1014 176.084C86.6932 176.084 87.1432 175.707 87.4514 174.955C87.772 174.191 87.9323 173.316 87.9323 172.329C87.9323 170.911 87.4822 169.802 86.5822 169C85.6945 168.199 84.443 167.798 82.8279 167.798C81.447 167.798 80.1894 168.131 79.0551 168.797C77.9331 169.463 77.0515 170.375 76.4104 171.534C75.7693 172.681 75.4487 173.944 75.4487 175.325C75.4487 176.817 75.8802 177.976 76.7433 178.802C77.6187 179.628 78.8393 180.041 80.4051 180.041C81.6258 180.041 82.7169 179.819 83.6786 179.375L84.178 181.391C82.9697 181.921 81.6134 182.187 80.1092 182.187C78.7037 182.187 77.4646 181.915 76.3919 181.373C75.3316 180.83 74.5117 180.06 73.9322 179.061C73.3527 178.062 73.063 176.897 73.063 175.566C73.063 173.704 73.5007 172.021 74.3761 170.517C75.2514 169 76.4536 167.817 77.9824 166.966C79.5236 166.103 81.2436 165.671 83.1423 165.671ZM81.1079 175.88C81.4532 175.88 81.7737 175.775 82.0696 175.566C82.3779 175.356 82.6183 175.079 82.7909 174.733C82.9758 174.376 83.0683 173.994 83.0683 173.587C83.0683 173.168 82.9512 172.829 82.7169 172.57C82.4827 172.298 82.1621 172.163 81.7552 172.163C81.2127 172.163 80.7627 172.397 80.4051 172.866C80.0476 173.334 79.8688 173.889 79.8688 174.53C79.8688 174.937 79.9736 175.264 80.1832 175.51C80.3928 175.757 80.7011 175.88 81.1079 175.88Z" fill="white"/>
<rect x="222.354" y="112.685" width="34.0054" height="56.3774" rx="2.98293" fill="#090D31"/>
<rect x="224.145" y="117.159" width="30.1276" height="44.7439" fill="#A01122"/>
<rect x="224.145" y="117.159" width="14.9146" height="44.7439" fill="#E9312F"/>
<rect x="224.145" y="117.159" width="1.78976" height="44.7439" fill="#E8B137"/>
<circle cx="239.057" cy="140.426" r="8.3522" fill="#08142C"/>
<path d="M243.451 140.262C243.645 140.379 243.642 140.661 243.446 140.774L236.908 144.577C236.708 144.694 236.457 144.548 236.459 144.316L236.535 136.583C236.538 136.351 236.791 136.21 236.989 136.331L243.451 140.262Z" fill="#FED08A"/>
<rect x="236.672" y="114.772" width="5.36927" height="1.19317" rx="0.596586" fill="#50465F"/>
<ellipse cx="239.358" cy="165.333" rx="1.78976" ry="2.2372" fill="#514760"/>
<rect x="301.104" y="60.782" width="34.0054" height="56.3774" rx="2.98293" fill="#090D31"/>
<rect x="302.895" y="65.2563" width="30.1276" height="44.7439" fill="#A01122"/>
<rect x="302.895" y="65.2563" width="14.9146" height="44.7439" fill="#E9312F"/>
<rect x="302.895" y="65.2563" width="1.78976" height="44.7439" fill="#E8B137"/>
<rect x="315.422" y="62.8699" width="5.36927" height="1.19317" rx="0.596586" fill="#50465F"/>
<ellipse cx="318.108" cy="113.431" rx="1.78976" ry="2.2372" fill="#514760"/>
<path d="M317.035 96.8463C313.536 92.8264 312.162 90.0799 311.794 88.8383C311.731 88.627 311.933 88.4604 312.141 88.5346L317.854 90.575C317.92 90.5984 317.991 90.5981 318.057 90.5742L323.419 88.6125C323.665 88.5225 323.897 88.7715 323.788 89.0097C321.487 94.0327 319.119 95.7293 318.403 96.8754C317.823 97.8033 317.29 97.303 317.078 96.909C317.066 96.8868 317.052 96.8653 317.035 96.8463Z" fill="white"/>
<path fill-rule="evenodd" clip-rule="evenodd" d="M317.807 93.2956C321.267 93.2956 324.071 90.4911 324.071 87.0315C324.071 83.5719 321.267 80.7673 317.807 80.7673C314.348 80.7673 311.543 83.5719 311.543 87.0315C311.543 90.4911 314.348 93.2956 317.807 93.2956ZM317.657 89.7163C319.222 89.7163 320.491 88.4475 320.491 86.8825C320.491 85.3174 319.222 84.0487 317.657 84.0487C316.092 84.0487 314.823 85.3174 314.823 86.8825C314.823 88.4475 316.092 89.7163 317.657 89.7163Z" fill="white"/>
<circle cx="481.122" cy="94.0417" r="14.0198" fill="#05102E" stroke="#11152B" stroke-width="0.298293"/>
<path fill-rule="evenodd" clip-rule="evenodd" d="M481.07 90.4039C480.111 89.3607 477.838 87.8892 475.648 89.6179C472.815 91.8551 474.306 95.5838 476.841 98.2684C478.682 100.217 480.253 101.167 480.973 101.475V101.55C481.003 101.54 481.035 101.528 481.07 101.515C481.105 101.528 481.137 101.54 481.167 101.55V101.475C481.887 101.167 483.458 100.217 485.299 98.2684C487.834 95.5838 489.326 91.8551 486.492 89.6179C484.302 87.8892 482.029 89.3607 481.07 90.4039Z" fill="#F1362F"/>
<path d="M475.648 89.6179L475.741 89.7349L475.648 89.6179ZM481.07 90.4039L480.96 90.5049L481.07 90.6243L481.18 90.5049L481.07 90.4039ZM476.841 98.2684L476.95 98.166L476.841 98.2684ZM480.973 101.475H481.123V101.377L481.032 101.338L480.973 101.475ZM480.973 101.55H480.824V101.757L481.021 101.691L480.973 101.55ZM481.07 101.515L481.124 101.376L481.07 101.355L481.016 101.376L481.07 101.515ZM481.167 101.55L481.12 101.691L481.316 101.757V101.55H481.167ZM481.167 101.475L481.108 101.338L481.018 101.377V101.475H481.167ZM485.299 98.2684L485.19 98.166L485.299 98.2684ZM486.492 89.6179L486.399 89.7349L486.492 89.6179ZM475.741 89.7349C476.793 88.9042 477.857 88.8442 478.779 89.1146C479.708 89.3871 480.494 89.9973 480.96 90.5049L481.18 90.303C480.688 89.7674 479.857 89.1202 478.863 88.8283C477.86 88.5343 476.693 88.6028 475.556 89.5008L475.741 89.7349ZM476.95 98.166C475.693 96.8353 474.705 95.2554 474.377 93.7438C474.051 92.2417 474.376 90.8121 475.741 89.7349L475.556 89.5008C474.087 90.6608 473.74 92.2142 474.086 93.807C474.429 95.3902 475.454 97.017 476.733 98.3709L476.95 98.166ZM481.032 101.338C480.334 101.04 478.78 100.103 476.95 98.166L476.733 98.3709C478.585 100.331 480.172 101.295 480.915 101.612L481.032 101.338ZM480.824 101.475V101.55H481.123V101.475H480.824ZM481.021 101.691C481.053 101.68 481.087 101.668 481.124 101.654L481.016 101.376C480.983 101.388 480.953 101.399 480.926 101.408L481.021 101.691ZM481.214 101.408C481.187 101.399 481.157 101.388 481.124 101.376L481.016 101.654C481.053 101.668 481.087 101.68 481.12 101.691L481.214 101.408ZM481.018 101.475V101.55H481.316V101.475H481.018ZM481.225 101.612C481.969 101.295 483.555 100.331 485.407 98.3709L485.19 98.166C483.36 100.103 481.806 101.04 481.108 101.338L481.225 101.612ZM485.407 98.3709C486.686 97.017 487.711 95.3902 488.054 93.807C488.4 92.2142 488.054 90.6608 486.584 89.5008L486.399 89.7349C487.764 90.8121 488.089 92.2417 487.763 93.7438C487.435 95.2554 486.447 96.8353 485.19 98.166L485.407 98.3709ZM486.584 89.5008C485.447 88.6028 484.28 88.5343 483.277 88.8283C482.283 89.1202 481.453 89.7674 480.96 90.303L481.18 90.5049C481.646 89.9973 482.432 89.3871 483.361 89.1146C484.283 88.8442 485.347 88.9042 486.399 89.7349L486.584 89.5008Z" fill="#11152B"/>
<path d="M486.49 89.6179C484.223 87.8281 481.867 89.4687 480.972 90.5127V101.55C481.569 101.351 483.269 100.416 485.297 98.2684C487.833 95.5838 489.324 91.8551 486.49 89.6179Z" fill="#B81B26"/>
<rect x="380.598" y="69.5818" width="64.4313" height="42.6559" rx="1.34232" fill="#0E1327" stroke="#11152B" stroke-width="0.298293"/>
<circle cx="388.207" cy="81.6627" r="2.38634" fill="#F22733"/>
<rect x="392.68" y="75.697" width="18.4942" height="11.3351" rx="5.66757" fill="#ED2F2F"/>
<circle cx="405.209" cy="81.6627" r="2.38634" fill="white"/>
<circle cx="398.345" cy="81.6627" r="2.38634" fill="white"/>
<circle cx="417.138" cy="81.6627" r="2.38634" fill="white"/>
<circle cx="393.873" cy="104.035" r="2.38634" fill="#F22733"/>
<rect x="399.838" y="99.2617" width="5.96586" height="7.15903" rx="2.98293" fill="#F92E28"/>
<rect x="409.385" y="97.1738" width="5.96586" height="9.24708" rx="2.98293" fill="#FD9B13"/>
<rect x="418.033" y="95.384" width="5.96586" height="11.3351" rx="2.98293" fill="#F92E28"/>
<rect x="426.684" y="93.5945" width="5.96586" height="13.1249" rx="2.98293" fill="#F92E28"/>
<rect x="435.334" y="90.9099" width="5.96586" height="15.8095" rx="2.98293" fill="#F92E28"/>
<rect x="421.613" y="82.5576" width="2.38634" height="18.7925" rx="1.19317" transform="rotate(-90 421.613 82.5576)" fill="#2C293C"/>
<circle cx="245.769" cy="78.2319" r="14.0198" fill="#05102E" stroke="#11152B" stroke-width="0.298293"/>
<path d="M245.918 70.9241C244.443 70.9241 243.002 71.3614 241.775 72.1809C240.549 73.0003 239.593 74.165 239.029 75.5276C238.464 76.8902 238.316 78.3897 238.604 79.8362C238.892 81.2828 239.602 82.6116 240.645 83.6545C241.688 84.6974 243.017 85.4077 244.463 85.6954C245.91 85.9832 247.409 85.8355 248.772 85.2711C250.135 84.7066 251.299 83.7508 252.119 82.5245C252.938 81.2981 253.376 79.8563 253.376 78.3814C253.373 76.4043 252.587 74.5088 251.189 73.1108C249.791 71.7128 247.895 70.9263 245.918 70.9241ZM252.228 78.3814C252.229 78.9633 252.148 79.5425 251.99 80.1023H249.228C249.404 78.9618 249.404 77.801 249.228 76.6605H251.99C252.148 77.2203 252.229 77.7995 252.228 78.3814ZM244.054 81.2496H247.783C247.415 82.4532 246.778 83.5569 245.918 84.4763C245.059 83.5567 244.422 82.4531 244.054 81.2496ZM243.774 80.1023C243.577 78.9635 243.577 77.7993 243.774 76.6605H248.068C248.265 77.7993 248.265 78.9635 248.068 80.1023H243.774ZM239.608 78.3814C239.608 77.7995 239.688 77.2203 239.847 76.6605H242.608C242.432 77.801 242.432 78.9618 242.608 80.1023H239.847C239.688 79.5425 239.608 78.9633 239.608 78.3814ZM247.783 75.5132H244.054C244.421 74.3096 245.059 73.2059 245.918 72.2865C246.777 73.2061 247.415 74.3097 247.783 75.5132ZM251.535 75.5132H248.981C248.659 74.3321 248.116 73.2227 247.382 72.2434C248.269 72.4566 249.1 72.8592 249.818 73.4236C250.535 73.988 251.122 74.7008 251.538 75.5132H251.535ZM244.455 72.2434C243.72 73.2227 243.178 74.3321 242.856 75.5132H240.299C240.715 74.7008 241.302 73.988 242.019 73.4236C242.736 72.8592 243.567 72.4566 244.455 72.2434ZM240.299 81.2496H242.856C243.178 82.4306 243.72 83.5401 244.455 84.5193C243.567 84.3061 242.736 83.9036 242.019 83.3392C241.302 82.7748 240.715 82.062 240.299 81.2496ZM247.382 84.5193C248.116 83.5401 248.659 82.4306 248.981 81.2496H251.538C251.122 82.062 250.535 82.7748 249.818 83.3392C249.1 83.9036 248.269 84.3061 247.382 84.5193Z" fill="url(#paint8_linear_224_536)"/>
<path d="M118.109 106.421C110.947 106.421 108.852 106.428 108.445 106.462C106.975 106.584 106.06 106.815 105.064 107.312C104.296 107.693 103.69 108.135 103.092 108.755C102.004 109.885 101.344 111.275 101.105 112.927C100.989 113.73 100.955 113.893 100.948 117.991C100.946 119.357 100.948 121.155 100.948 123.566C100.948 130.723 100.956 132.815 100.991 133.222C101.109 134.652 101.334 135.552 101.809 136.536C102.717 138.421 104.45 139.835 106.493 140.363C107.2 140.545 107.981 140.645 108.984 140.693C109.409 140.711 113.74 140.724 118.073 140.724C122.406 140.724 126.739 140.719 127.153 140.698C128.315 140.643 128.989 140.553 129.734 140.36C131.79 139.83 133.492 138.436 134.418 136.526C134.884 135.565 135.12 134.631 135.227 133.275C135.251 132.98 135.26 128.267 135.26 123.561C135.26 118.854 135.25 114.151 135.227 113.855C135.118 112.478 134.882 111.551 134.401 110.572C134.007 109.771 133.569 109.172 132.933 108.56C131.798 107.476 130.41 106.816 128.756 106.578C127.954 106.462 127.794 106.428 123.693 106.421H118.109Z" fill="url(#paint9_radial_224_536)"/>
<path d="M118.109 106.421C110.947 106.421 108.852 106.428 108.445 106.462C106.975 106.584 106.06 106.815 105.064 107.312C104.296 107.693 103.69 108.135 103.092 108.755C102.004 109.885 101.344 111.275 101.105 112.927C100.989 113.73 100.955 113.893 100.948 117.991C100.946 119.357 100.948 121.155 100.948 123.566C100.948 130.723 100.956 132.815 100.991 133.222C101.109 134.652 101.334 135.552 101.809 136.536C102.717 138.421 104.45 139.835 106.493 140.363C107.2 140.545 107.981 140.645 108.984 140.693C109.409 140.711 113.74 140.724 118.073 140.724C122.406 140.724 126.739 140.719 127.153 140.698C128.315 140.643 128.989 140.553 129.734 140.36C131.79 139.83 133.492 138.436 134.418 136.526C134.884 135.565 135.12 134.631 135.227 133.275C135.251 132.98 135.26 128.267 135.26 123.561C135.26 118.854 135.25 114.151 135.227 113.855C135.118 112.478 134.882 111.551 134.401 110.572C134.007 109.771 133.569 109.172 132.933 108.56C131.798 107.476 130.41 106.816 128.756 106.578C127.954 106.462 127.794 106.428 123.693 106.421H118.109Z" fill="url(#paint10_radial_224_536)"/>
<path d="M118.102 110.907C114.662 110.907 114.23 110.922 112.879 110.984C111.53 111.045 110.61 111.259 109.804 111.572C108.971 111.896 108.264 112.328 107.56 113.033C106.856 113.737 106.423 114.443 106.098 115.276C105.784 116.082 105.571 117.003 105.51 118.351C105.449 119.702 105.434 120.134 105.434 123.574C105.434 127.014 105.449 127.445 105.51 128.796C105.572 130.144 105.786 131.065 106.099 131.87C106.422 132.703 106.855 133.41 107.56 134.114C108.263 134.819 108.97 135.253 109.803 135.576C110.609 135.889 111.529 136.103 112.878 136.165C114.229 136.226 114.66 136.241 118.1 136.241C121.541 136.241 121.971 136.226 123.322 136.165C124.671 136.103 125.592 135.889 126.398 135.576C127.231 135.253 127.937 134.819 128.64 134.114C129.345 133.41 129.778 132.703 130.102 131.87C130.414 131.065 130.628 130.144 130.691 128.796C130.752 127.445 130.767 127.014 130.767 123.574C130.767 120.134 130.752 119.702 130.691 118.351C130.628 117.002 130.414 116.082 130.102 115.277C129.778 114.443 129.345 113.737 128.64 113.033C127.936 112.328 127.231 111.895 126.397 111.572C125.59 111.259 124.669 111.045 123.32 110.984C121.969 110.922 121.539 110.907 118.098 110.907H118.102ZM116.965 113.19C117.303 113.189 117.679 113.19 118.102 113.19C121.484 113.19 121.885 113.202 123.22 113.263C124.455 113.319 125.126 113.525 125.572 113.699C126.163 113.928 126.585 114.203 127.028 114.646C127.471 115.089 127.746 115.512 127.976 116.103C128.149 116.549 128.356 117.219 128.412 118.454C128.473 119.789 128.486 120.191 128.486 123.571C128.486 126.952 128.473 127.353 128.412 128.688C128.355 129.923 128.149 130.593 127.976 131.039C127.746 131.631 127.471 132.051 127.028 132.495C126.584 132.938 126.163 133.212 125.572 133.442C125.126 133.616 124.455 133.822 123.22 133.878C121.885 133.939 121.484 133.952 118.102 133.952C114.719 133.952 114.318 133.939 112.983 133.878C111.748 133.821 111.078 133.615 110.631 133.442C110.04 133.212 109.618 132.938 109.174 132.494C108.731 132.051 108.457 131.63 108.226 131.038C108.053 130.592 107.846 129.922 107.79 128.687C107.729 127.352 107.717 126.951 107.717 123.568C107.717 120.185 107.729 119.786 107.79 118.451C107.847 117.216 108.053 116.546 108.226 116.099C108.456 115.508 108.731 115.086 109.174 114.642C109.618 114.199 110.04 113.925 110.631 113.695C111.078 113.52 111.748 113.315 112.983 113.258C114.152 113.205 114.605 113.189 116.965 113.187V113.19ZM124.863 115.293C124.024 115.293 123.343 115.973 123.343 116.812C123.343 117.652 124.024 118.333 124.863 118.333C125.702 118.333 126.383 117.652 126.383 116.812C126.383 115.973 125.702 115.292 124.863 115.292V115.293ZM118.102 117.069C114.509 117.069 111.597 119.982 111.597 123.574C111.597 127.166 114.509 130.078 118.102 130.078C121.694 130.078 124.606 127.166 124.606 123.574C124.606 119.982 121.694 117.069 118.102 117.069ZM118.102 119.352C120.433 119.352 122.324 121.242 122.324 123.574C122.324 125.906 120.433 127.796 118.102 127.796C115.77 127.796 113.879 125.906 113.879 123.574C113.879 121.242 115.77 119.352 118.102 119.352Z" fill="white"/>
<rect x="283.205" y="133.267" width="119.615" height="26.5481" rx="2.98293" fill="#0D112A"/>
<path d="M321.669 150.393C322.625 150.115 323.185 149.293 323.185 148.17C323.185 147.481 322.998 146.94 322.62 146.535C321.516 145.355 319.642 145.865 319.175 147.472C318.983 148.131 318.984 148.181 319.183 148.9C319.362 149.543 319.928 150.21 320.377 150.307C320.51 150.336 320.706 150.397 320.812 150.443C321.082 150.559 321.108 150.557 321.669 150.393ZM319.935 155.59C318.931 155.262 318.023 154.489 317.547 153.557C317.411 153.289 317.48 153.234 318.379 152.888C319.012 152.645 319.214 152.618 319.214 152.777C319.214 153.008 319.817 153.627 320.23 153.821C321.056 154.21 322.143 153.977 322.658 153.301C322.896 152.989 323.108 152.159 323.07 151.691L323.049 151.443L322.657 151.716C322.1 152.104 321.178 152.275 320.425 152.13C319.524 151.956 318.954 151.656 318.349 151.038C317.711 150.386 317.436 149.858 317.236 148.898C316.836 146.976 318.056 144.919 319.959 144.308C320.926 143.997 322.282 144.197 322.854 144.735L323.074 144.941L323.105 144.665L323.137 144.389H324.009H324.88L324.909 148.263C324.938 152.333 324.894 152.89 324.472 153.756C324.054 154.613 323.243 155.288 322.247 155.608C321.618 155.81 320.583 155.802 319.935 155.59Z" fill="#4286F5"/>
<path d="M305.099 150.085C305.849 149.565 306.215 148.436 305.95 147.458C305.73 146.643 304.792 145.89 303.998 145.89C302.718 145.89 301.787 146.835 301.782 148.139C301.778 149.179 302.422 150.137 303.27 150.356C303.82 150.498 304.689 150.369 305.099 150.085ZM303.157 152.126C301.623 151.853 300.51 150.852 299.986 149.273C299.744 148.544 299.824 147.282 300.159 146.566C300.879 145.027 302.248 144.143 303.905 144.149C307.063 144.159 308.931 147.366 307.447 150.229C307.023 151.048 305.811 151.921 304.856 152.097C304 152.254 303.886 152.256 303.157 152.126Z" fill="#EA4235"/>
<path d="M330.546 147.795C330.904 147.636 330.772 147.679 330.834 147.678C330.897 147.676 331.3 147.502 331.646 147.343C331.991 147.183 332.343 147.052 332.427 147.052C332.512 147.052 332.014 147.266 332.014 147.224C332.014 147.182 332.821 146.817 333.115 146.717C333.633 146.541 333.643 146.531 333.478 146.348C332.99 145.809 332.004 145.701 331.347 146.116C330.815 146.452 330.391 147.022 330.309 147.512C330.235 147.951 330.2 147.949 330.546 147.795ZM331.564 152.124C330.033 151.765 329.029 150.798 328.521 149.193C328.383 148.757 328.387 147.494 328.528 147.059C329.122 145.225 330.472 144.146 332.172 144.146C333.142 144.146 333.944 144.476 334.64 145.161C335.138 145.651 335.778 146.722 335.778 147.066C335.778 147.288 335.662 147.355 334.47 147.823C333.512 148.2 333.049 148.389 332.291 148.717C332.157 148.774 331.961 148.857 331.855 148.9C331.748 148.943 331.465 149.062 331.225 149.165C330.985 149.268 330.728 149.37 330.654 149.393C330.421 149.464 331.222 150.213 331.661 150.334C332.524 150.572 333.284 150.408 333.886 149.853C334.112 149.644 334.342 149.473 334.397 149.473C334.561 149.473 335.774 150.289 335.776 150.4C335.779 150.607 334.929 151.383 334.367 151.688C333.851 151.967 332.67 152.299 332.291 152.271C332.211 152.266 331.884 152.199 331.564 152.124Z" fill="#EA4235"/>
<path d="M292.432 152.084C291.25 151.895 290.109 151.269 289.111 150.262C288.41 149.556 287.95 148.809 287.564 147.754C287.318 147.084 287.324 144.873 287.573 144.195C288.36 142.049 289.866 140.61 291.996 139.967C292.673 139.763 294.825 139.792 295.434 140.013C296.358 140.349 297.489 141.002 297.805 141.383C297.921 141.522 297.862 141.617 297.318 142.166C296.977 142.509 296.676 142.79 296.648 142.79C296.62 142.79 296.47 142.681 296.315 142.548C295.512 141.858 293.969 141.493 292.801 141.716C291.47 141.971 290.366 142.814 289.745 144.049C289.435 144.667 289.233 144.703 289.233 145.986C289.233 147.206 289.447 147.332 289.691 147.854C289.836 148.162 290.202 148.674 290.506 148.993C291.614 150.154 293.233 150.611 294.783 150.199C295.652 149.968 296.024 149.77 296.567 149.247C297.041 148.79 297.35 148.224 297.46 147.611L297.525 147.25L295.559 147.223L293.594 147.197V146.293V145.388L296.403 145.396C297.948 145.401 299.238 145.405 299.271 145.405C299.304 145.405 299.377 145.639 299.434 145.924C299.65 146.999 299.254 148.626 298.494 149.787C297.869 150.744 297.199 151.261 295.773 151.885C295.182 152.144 293.453 152.247 292.432 152.084Z" fill="#4185F4"/>
<path d="M313.237 150.33C313.688 150.217 314.292 149.65 314.514 149.131C314.603 148.924 314.746 148.524 314.725 148.125C314.694 147.554 314.573 147.149 314.454 147.004C313.949 146.393 313.685 146.169 313.315 146.038C312.486 145.746 311.714 145.906 311.09 146.5C309.871 147.661 310.339 149.817 311.927 150.355C312.382 150.509 312.536 150.506 313.237 150.33ZM311.566 152.086C310.537 151.869 309.463 151.051 308.976 150.114C308.164 148.552 308.37 146.742 309.503 145.488C311.119 143.7 313.967 143.7 315.613 145.49C317.029 147.029 316.883 149.824 315.315 151.166C314.568 151.806 313.841 152.094 312.861 152.138C312.386 152.159 311.803 152.136 311.566 152.086Z" fill="#FABC05"/>
<path d="M325.895 146.084V140.168L326.839 140.196L327.783 140.224V146.084V151.943L326.839 151.971L325.895 151.999V146.084Z" fill="#34A853"/>
<path d="M380.792 148.521C380.778 146.692 380.773 145.188 380.782 145.179C380.79 145.17 381.084 145.178 381.435 145.195L382.073 145.228V145.641V146.053L382.461 145.684C382.95 145.22 383.61 145.01 384.348 145.086C384.645 145.117 384.905 145.17 384.926 145.203C384.947 145.237 384.846 145.517 384.703 145.827L384.443 146.389L383.815 146.406C383.088 146.426 382.809 146.576 382.398 147.169L382.122 147.567V149.675V151.783L381.47 151.815L380.819 151.846L380.792 148.521ZM367.685 151.749C367.488 151.084 366.246 147.269 366.203 147.197C366.172 147.144 366.134 147.035 366.12 146.955C366.106 146.875 365.904 146.222 365.671 145.505L365.248 144.2L364.414 146.764C363.956 148.174 363.397 149.884 363.172 150.563L362.762 151.798H361.929C361.202 151.798 361.095 151.776 361.084 151.626C361.077 151.531 360.758 150.344 360.376 148.987C359.994 147.629 359.618 146.279 359.542 145.986C359.168 144.56 358.126 140.859 358.008 140.538L357.875 140.175H358.739C359.214 140.175 359.604 140.207 359.605 140.247C359.606 140.287 359.69 140.625 359.79 140.998C360.538 143.761 361.6 147.725 361.775 148.405C361.891 148.856 362.01 149.183 362.04 149.131C362.07 149.079 362.629 147.425 363.283 145.454C363.937 143.482 364.488 141.826 364.508 141.773C364.529 141.716 364.843 141.689 365.266 141.708L365.987 141.74L367.222 145.457C367.9 147.502 368.472 149.16 368.491 149.141C368.525 149.106 369.155 146.66 370.232 142.378L370.786 140.175H371.633C372.471 140.175 372.479 140.177 372.397 140.393C372.352 140.513 372.023 141.722 371.667 143.081C371.311 144.439 370.96 145.747 370.888 145.986C370.816 146.226 370.44 147.629 370.051 149.103L369.346 151.785L368.529 151.815C368.042 151.834 367.702 151.807 367.685 151.749ZM346.484 147.081C346.45 146.99 346.048 145.89 345.593 144.635C345.137 143.381 344.73 142.318 344.689 142.275C344.624 142.205 343.848 144.216 343.785 144.62C343.772 144.706 343.733 144.82 343.699 144.875C343.608 145.02 342.846 147.063 342.846 147.162C342.846 147.208 343.679 147.245 344.697 147.245C346.399 147.245 346.542 147.232 346.484 147.081ZM339.457 151.749C339.457 151.696 339.854 150.606 340.339 149.328C340.823 148.049 341.406 146.502 341.634 145.889C342.25 144.23 343.219 141.661 343.485 140.982C343.613 140.653 343.718 140.337 343.718 140.279C343.718 140.212 344.041 140.175 344.628 140.175C345.405 140.175 345.547 140.2 345.603 140.344C345.86 141.004 349.127 149.669 349.338 150.248C349.483 150.647 349.673 151.143 349.76 151.349C349.846 151.556 349.917 151.741 349.917 151.761C349.917 151.781 349.528 151.798 349.052 151.798H348.187L347.979 151.241C347.864 150.934 347.616 150.237 347.427 149.691L347.084 148.698H344.683H342.281L342.127 149.11C342.042 149.336 341.787 150.037 341.56 150.668L341.147 151.814L340.302 151.83C339.791 151.84 339.457 151.808 339.457 151.749ZM395.177 151.98C394.252 151.868 393.479 151.324 393.032 150.472C392.861 150.145 392.892 150.087 393.333 149.911C393.559 149.82 393.772 149.701 393.807 149.645C393.844 149.584 393.941 149.631 394.049 149.764C394.87 150.771 395.054 150.873 395.941 150.809C396.478 150.77 396.567 150.732 396.812 150.438C397.345 149.8 396.964 149.392 395.467 149C393.788 148.56 393.115 147.995 393.115 147.024C393.115 146.23 393.409 145.772 394.165 145.389C394.753 145.09 394.868 145.066 395.725 145.067C396.548 145.067 396.707 145.097 397.159 145.335C397.692 145.615 398.367 146.4 398.277 146.634C398.25 146.703 398.193 146.738 398.15 146.712C398.107 146.685 397.862 146.754 397.606 146.864C397.293 146.998 397.127 147.028 397.103 146.955C397.048 146.793 396.687 146.473 396.368 146.306C395.989 146.108 395.132 146.18 394.782 146.44C394.617 146.562 394.509 146.745 394.49 146.929C394.447 147.358 394.773 147.563 395.98 147.866C397.475 148.24 397.832 148.451 398.199 149.173C398.458 149.685 398.369 150.605 398.016 151.068C397.435 151.829 396.475 152.138 395.177 151.98ZM389.148 150.765C389.622 150.671 390.357 149.916 390.501 149.377C390.657 148.791 390.635 147.913 390.452 147.466C390.259 146.993 389.588 146.396 389.103 146.266C387.826 145.922 386.595 146.988 386.588 148.447C386.584 149.178 386.749 149.677 387.144 150.126C387.657 150.711 388.337 150.928 389.148 150.765ZM387.858 151.989C386.934 151.831 386.054 151.09 385.573 150.066C385.348 149.586 385.318 149.401 385.318 148.502C385.318 147.546 385.338 147.444 385.637 146.836C385.984 146.131 386.479 145.639 387.2 145.284C387.556 145.109 387.804 145.067 388.466 145.068C389.35 145.071 389.879 145.259 390.368 145.748L390.597 145.977V144.101V142.225L391.236 142.193C391.587 142.175 391.891 142.187 391.911 142.219C391.931 142.252 391.938 144.425 391.926 147.049L391.904 151.82L391.275 151.819C390.735 151.818 390.65 151.794 390.676 151.652C390.697 151.54 390.666 151.511 390.579 151.56C390.477 151.618 390.475 151.607 390.573 151.502C390.639 151.43 390.694 151.268 390.694 151.141C390.694 150.915 390.689 150.917 390.447 151.204C389.938 151.809 388.811 152.151 387.858 151.989ZM377.393 150.522C377.598 150.386 377.897 150.088 378.055 149.858C378.308 149.494 378.349 149.341 378.378 148.648C378.406 147.991 378.377 147.787 378.209 147.459C377.659 146.381 376.61 145.942 375.611 146.371C374.711 146.758 374.292 147.45 374.29 148.553C374.287 149.554 374.743 150.302 375.584 150.68C376.086 150.905 376.925 150.832 377.393 150.522ZM375.702 151.978C374.776 151.828 374.028 151.323 373.503 150.493C373.071 149.809 372.937 149.236 372.987 148.288C373.108 145.984 375.05 144.566 377.309 145.131C378.406 145.406 379.306 146.316 379.61 147.46C379.867 148.425 379.729 149.628 379.272 150.403C379.16 150.592 379.098 150.798 379.134 150.861C379.169 150.923 379.166 150.945 379.125 150.908C379.085 150.872 378.821 151.031 378.538 151.261C377.764 151.892 376.753 152.147 375.702 151.978ZM354.83 150.496C355.061 150.343 355.328 150.038 355.489 149.741C355.715 149.326 355.76 149.127 355.758 148.559C355.756 147.701 355.559 147.211 355.026 146.735C354.209 146.005 353.231 146.008 352.444 146.741C351.96 147.193 351.748 147.691 351.74 148.394C351.727 149.489 352.152 150.271 352.967 150.655C353.509 150.909 354.308 150.841 354.83 150.496ZM353.021 151.972C352.052 151.823 351.2 151.122 350.705 150.066C350.485 149.597 350.45 149.393 350.45 148.601C350.45 147.389 350.723 146.62 351.385 145.973C352.099 145.275 352.611 145.066 353.597 145.068C354.504 145.071 355.051 145.275 355.532 145.79L355.777 146.052L355.728 144.137L355.68 142.223L356.346 142.191C356.731 142.174 357.028 142.201 357.049 142.257C357.07 142.311 357.075 144.484 357.061 147.087L357.036 151.82L356.406 151.82L355.777 151.819L355.811 151.402L355.845 150.985L355.477 151.308C354.79 151.911 354.006 152.123 353.021 151.972V151.972Z" fill="#7F7F7F"/>
<path d="M360.217 255.101C352.212 253.668 346.145 246.758 346.145 238.416C346.145 229.146 353.729 221.562 362.998 221.562C372.268 221.562 379.852 229.146 379.852 238.416C379.852 246.758 373.785 253.668 365.779 255.101L364.852 254.342H361.144L360.217 255.101Z" fill="url(#paint11_linear_224_536)"/>
<path d="M369.571 243.134L370.329 238.415H365.863V235.129C365.863 233.781 366.369 232.769 368.391 232.769H370.582V228.472C369.402 228.303 368.054 228.135 366.874 228.135C362.998 228.135 360.301 230.494 360.301 234.707V238.415H356.088V243.134H360.301V255.016C361.228 255.185 362.155 255.269 363.082 255.269C364.009 255.269 364.936 255.185 365.863 255.016V243.134H369.571Z" fill="white"/>
<rect x="60.9766" y="79.5742" width="25.0566" height="16.1078" rx="1.49146" fill="url(#paint12_linear_224_536)"/>
<path d="M75.1454 101.499C73.5942 100.663 70.8201 97.2728 69.627 95.6819H76.786C75.8314 96.8751 75.2945 100.057 75.1454 101.499Z" fill="#BF1F24"/>
<circle cx="70.5222" cy="87.9265" r="1.78976" fill="white"/>
<circle cx="76.7878" cy="87.9265" r="1.78976" fill="white"/>
<rect x="200.578" y="227.177" width="30.2995" height="10.7669" rx="5.38343" transform="rotate(-45 200.578 227.177)" fill="#E73D37"/>
<path d="M211.24 216.516L218.197 209.559C220.3 207.457 223.708 207.457 225.81 209.559C227.913 211.661 227.913 215.07 225.81 217.172L218.854 224.129L211.24 216.516Z" fill="#F8B62E"/>
<path d="M227.127 214.701C227.723 212.195 226.58 210.276 225.934 209.63C226.172 213.448 219.172 218.778 215.643 220.965L218.775 224.097L225.039 218.131C226.59 216.819 227.077 215.298 227.127 214.701Z" fill="#F28816"/>
<path d="M209.528 232.449C207.022 233.046 205.103 231.902 204.457 231.256C208.275 231.495 213.605 224.495 215.792 220.965L218.924 224.097L212.958 230.361C211.646 231.912 210.125 232.4 209.528 232.449Z" fill="#7F0C1E"/>
<path d="M310.327 279.035C307.209 278.033 308.323 279.147 305.873 275.695H318.789C317.564 277.699 317.23 278.033 316.785 278.145C316.429 278.234 315.3 278.776 314.781 279.035L313.89 280.372C312.821 281.084 311.44 280.669 310.884 280.372L310.327 279.035Z" fill="#131A33"/>
<path d="M305.982 275.583C305.982 275.316 306.279 274.804 306.428 274.581C310.325 274.507 318.164 274.403 318.342 274.581C318.52 274.759 318.639 275.324 318.676 275.583C313.999 276.14 305.982 275.917 305.982 275.583Z" fill="#676D92"/>
<rect x="305.982" y="271.575" width="12.4708" height="2.895" fill="#141A35"/>
<path d="M305.649 266.453L306.206 270.35L308.321 269.905C307.965 266.431 306.391 260.515 305.649 257.991C306.428 254.873 309.212 255.653 310.437 255.653C311.417 255.653 312.552 258.696 312.998 260.218C313.409 262.534 313.169 267.641 312.998 269.905H314.334C314.074 269.905 313.911 268.591 315.336 263.336C316.761 258.08 315.93 256.692 315.336 256.655C313.198 256.566 313.777 258.102 314.334 258.882C314.512 259.594 313.889 259.698 313.554 259.661C311.506 258.236 312.701 256.395 313.554 255.653C317.028 254.584 317.6 256.766 317.452 257.991C317.006 259.861 316.375 266.713 316.115 269.905H318.342C317.719 266.52 318.602 265.377 319.122 265.228C325.803 261.665 328.363 247.636 318.008 242.848C309.724 239.018 303.422 242.959 301.306 245.409C300.007 246.522 297.498 250.13 297.855 255.653C298.211 261.176 303.199 265.154 305.649 266.453Z" fill="#FAB216"/>
<path d="M316.672 255.43C319.523 249.907 316.747 244.073 315.002 241.846C319.812 242.736 322.945 246.745 323.91 248.638C324.652 250.531 325.691 255.319 323.91 259.327C321.683 264.338 320.347 264.226 318.899 265.34C317.741 266.23 318.046 268.68 318.343 269.794H313.109C313.466 258.125 315.633 255.356 316.672 255.43Z" fill="#F79010"/>
<path d="M305.76 257.991L308.432 269.794L306.094 270.351V271.464L318.342 271.241V269.905H316.115C316.152 269.571 316.226 268.836 316.226 268.569C316.226 268.302 316.894 262 317.228 258.882C317.674 257.902 317.414 256.841 317.228 256.432C316.159 254.918 314.408 255.282 313.665 255.653C312.329 256.633 312.366 257.991 312.552 258.548C312.589 258.771 312.574 258.993 312.218 258.103C311.862 257.212 311.179 256.173 310.882 255.764C307.541 255.43 308.877 255.876 307.541 255.764C306.472 255.675 305.908 257.212 305.76 257.991Z" fill="white"/>
<path d="M312.439 258.436C312.453 258.496 312.468 258.561 312.482 258.631C312.569 258.855 312.803 259.175 313.33 259.438C314.043 259.795 314.221 259.29 314.221 258.993C313.954 258.815 313.887 258.176 313.887 257.879C314.154 256.098 315.334 256.469 315.891 256.877C316.671 257.879 316.559 260.552 315.334 263.113C314.355 265.162 314.184 268.494 314.221 269.905H312.996C313.338 264.44 312.82 260.244 312.482 258.631C312.452 258.552 312.439 258.485 312.439 258.436Z" fill="#FAB216"/>
<path d="M300.528 253.76C300.35 252.245 301.642 248.972 302.31 247.524C302.944 245.925 305.428 247.19 303.535 248.526C302.021 249.595 301.716 252.461 301.753 253.76C301.753 254.388 300.707 255.274 300.528 253.76Z" fill="white"/>
<path d="M306.54 245.075C307.134 244.261 305.056 245.001 304.759 245.409C303.945 246.371 304.167 247.039 304.759 247.039C305.949 246.776 305.838 246.037 306.54 245.075Z" fill="white"/>
<path d="M307.43 257.434C308.231 258.859 309.1 265.451 309.434 268.569C309.434 269.37 309.731 270.016 309.879 270.239C310.503 270.417 311.253 270.165 311.549 270.016C311.817 263.157 310.919 260.106 310.436 259.438L309.434 259.772L309.1 258.659L310.213 258.325C310.124 257.612 309.657 256.989 309.434 256.766C307.92 256.053 307.467 256.914 307.43 257.434Z" fill="#FDB50B"/>
<path d="M416.284 349.162C415.06 343.855 411.489 341.447 406.4 340.487C413.299 339.341 416.3 335.007 416.774 328.351C417.656 334.401 419.931 339.193 426.684 340.448C420.837 341.637 417.84 345.24 416.762 350.907C416.621 350.378 416.48 349.85 416.284 349.162Z" fill="#11152B"/>
<path d="M9.88406 202.265C8.6601 196.958 5.0891 194.55 0 193.589C6.89816 192.444 9.89974 188.109 10.374 181.453C11.2557 187.503 13.5305 192.295 20.2839 193.551C14.4362 194.74 11.4395 198.342 10.3616 204.009C10.2204 203.481 10.0793 202.953 9.88406 202.265Z" fill="#11152B"/>
<path d="M134.993 250.129C133.769 244.822 130.198 242.414 125.109 241.453C132.008 240.308 135.009 235.974 135.483 229.317C136.365 235.368 138.64 240.159 145.393 241.415C139.546 242.604 136.549 246.206 135.471 251.873C135.33 251.345 135.189 250.817 134.993 250.129Z" fill="#11152B"/>
<path d="M200.402 140.58C199.463 136.509 196.724 134.662 192.82 133.925C198.111 133.047 200.414 129.722 200.777 124.617C201.454 129.257 203.199 132.933 208.379 133.896C203.893 134.808 201.595 137.571 200.768 141.918C200.66 141.512 200.551 141.107 200.402 140.58Z" fill="#11152B"/>
<path d="M416.07 134.912C415.131 130.841 412.392 128.994 408.488 128.258C413.779 127.379 416.082 124.055 416.445 118.949C417.122 123.59 418.867 127.265 424.047 128.228C419.561 129.14 417.263 131.903 416.436 136.25C416.328 135.845 416.219 135.44 416.07 134.912Z" fill="#11152B"/>
<path d="M26.6174 90.0003C25.8434 86.6443 23.5853 85.1216 20.3672 84.5141C24.7293 83.7899 26.6273 81.049 26.9272 76.8398C27.4847 80.6657 28.9232 83.6958 33.1938 84.4899C29.496 85.2418 27.601 87.5197 26.9194 91.1032C26.8301 90.7691 26.7408 90.4351 26.6174 90.0003Z" fill="#11152B"/>
<path d="M173.889 292.826C173.241 290.019 171.352 288.745 168.66 288.237C172.309 287.631 173.897 285.338 174.148 281.817C174.614 285.017 175.818 287.552 179.39 288.216C176.297 288.845 174.711 290.751 174.141 293.749C174.067 293.469 173.992 293.19 173.889 292.826Z" fill="#ECB54E"/>
<path d="M269.045 133.836C268.397 131.028 266.508 129.755 263.816 129.246C267.465 128.641 269.053 126.348 269.304 122.827C269.77 126.027 270.974 128.562 274.546 129.226C271.453 129.855 269.868 131.761 269.297 134.758C269.223 134.479 269.148 134.199 269.045 133.836Z" fill="#ECB54E"/>
<path d="M545.885 93.4036C545.237 90.5962 543.348 89.3225 540.656 88.8143C544.305 88.2084 545.893 85.9156 546.144 82.3945C546.61 85.5949 547.814 88.1297 551.386 88.7941C548.293 89.423 546.708 91.3285 546.137 94.3263C546.063 94.0468 545.988 93.7673 545.885 93.4036Z" fill="#ECB54E"/>
<path d="M441.257 285.527C440.302 281.386 437.516 279.507 433.545 278.758C438.927 277.864 441.269 274.482 441.639 269.289C442.327 274.009 444.102 277.748 449.371 278.728C444.809 279.656 442.471 282.466 441.63 286.888C441.519 286.476 441.409 286.063 441.257 285.527Z" fill="#ECB54E"/>
<path d="M187.29 252.121C186.756 249.805 185.197 248.754 182.977 248.335C185.987 247.835 187.297 245.944 187.504 243.039C187.889 245.679 188.881 247.77 191.829 248.318C189.277 248.837 187.969 250.409 187.498 252.882C187.437 252.652 187.375 252.421 187.29 252.121Z" fill="#A01122"/>
<path d="M331.368 182.321C330.834 180.005 329.276 178.954 327.055 178.535C330.065 178.035 331.375 176.143 331.582 173.238C331.967 175.879 332.96 177.97 335.907 178.518C333.355 179.037 332.047 180.609 331.577 183.082C331.515 182.851 331.453 182.621 331.368 182.321Z" fill="#A01122"/>
<path d="M276.685 63.3978C275.461 58.0906 271.89 55.6827 266.801 54.722C273.699 53.5767 276.701 49.2423 277.175 42.5859C278.056 48.6361 280.331 53.4279 287.085 54.6838C281.237 55.8728 278.24 59.475 277.162 65.1419C277.021 64.6136 276.88 64.0854 276.685 63.3978Z" fill="#11152B"/>
<path d="M491.557 383.499C491.218 382.025 490.226 381.356 488.812 381.089C490.728 380.771 491.562 379.567 491.694 377.719C491.938 379.399 492.57 380.73 494.446 381.079C492.822 381.409 491.989 382.409 491.69 383.983C491.651 383.836 491.612 383.689 491.557 383.499Z" fill="#11152B"/>
<path d="M366.19 114.289C365.85 112.815 364.859 112.146 363.445 111.879C365.361 111.561 366.195 110.357 366.326 108.509C366.571 110.189 367.203 111.52 369.078 111.869C367.454 112.199 366.622 113.199 366.323 114.773C366.284 114.626 366.244 114.48 366.19 114.289Z" fill="#11152B"/>
<path d="M213.763 107.428C213.423 105.954 212.431 105.285 211.018 105.018C212.933 104.7 213.767 103.497 213.899 101.648C214.143 103.328 214.775 104.659 216.651 105.008C215.027 105.338 214.195 106.338 213.895 107.912C213.856 107.765 213.817 107.619 213.763 107.428Z" fill="#11152B"/>
<path d="M155.298 251.205C154.958 249.731 153.966 249.062 152.553 248.795C154.468 248.477 155.302 247.274 155.434 245.425C155.679 247.105 156.31 248.436 158.186 248.785C156.562 249.115 155.73 250.115 155.43 251.689C155.391 251.542 155.352 251.396 155.298 251.205Z" fill="#11152B"/>
<path d="M491.557 306.659C491.218 305.185 490.226 304.516 488.812 304.249C490.728 303.931 491.562 302.727 491.694 300.879C491.938 302.559 492.57 303.89 494.446 304.239C492.822 304.569 491.989 305.569 491.69 307.143C491.651 306.996 491.612 306.85 491.557 306.659Z" fill="#11152B"/>
<path d="M144.261 333.534C143.921 332.06 142.929 331.391 141.516 331.125C143.431 330.806 144.265 329.603 144.397 327.754C144.641 329.434 145.273 330.765 147.149 331.114C145.525 331.444 144.693 332.444 144.393 334.018C144.354 333.872 144.315 333.725 144.261 333.534Z" fill="#11152B"/>
<path d="M123.493 330.022C122.992 327.846 121.528 326.859 119.441 326.465C122.269 325.996 123.5 324.219 123.694 321.49C124.056 323.97 124.988 325.935 127.757 326.449C125.36 326.937 124.131 328.414 123.689 330.737C123.631 330.52 123.574 330.304 123.493 330.022Z" fill="#11152B"/>
<path d="M13.4514 342.013C13.0467 340.259 11.8661 339.463 10.1836 339.145C12.4642 338.766 13.4566 337.333 13.6134 335.133C13.9049 337.133 14.657 338.717 16.8897 339.133C14.9564 339.526 13.9657 340.717 13.6093 342.59C13.5626 342.415 13.5159 342.241 13.4514 342.013Z" fill="#11152B"/>
<path d="M443.954 320.109C443.404 317.722 441.798 316.64 439.51 316.208C442.611 315.693 443.961 313.744 444.174 310.751C444.571 313.471 445.594 315.626 448.63 316.191C446.001 316.725 444.653 318.345 444.169 320.893C444.105 320.655 444.042 320.418 443.954 320.109Z" fill="#A01122"/>
<path d="M471.038 44.5374C470.488 42.1511 468.882 41.0684 466.594 40.6365C469.695 40.1215 471.045 38.1726 471.258 35.1797C471.655 37.9 472.678 40.0546 475.714 40.6193C473.085 41.1539 471.737 42.7736 471.253 45.3216C471.189 45.0841 471.126 44.8466 471.038 44.5374Z" fill="#A01122"/>
<path d="M179.119 16.527C178.147 12.3125 175.311 10.4003 171.27 9.63743C176.747 8.72792 179.131 5.28593 179.508 0C180.208 4.80453 182.014 8.60976 187.377 9.60709C182.734 10.5513 180.354 13.4119 179.498 17.9121C179.386 17.4926 179.274 17.0731 179.119 16.527Z" fill="#A01122"/>
<path d="M155.804 135.466C155.253 133.08 153.648 131.997 151.359 131.565C154.461 131.05 155.811 129.101 156.024 126.108C156.42 128.829 157.443 130.983 160.48 131.548C157.85 132.082 156.503 133.702 156.018 136.25C155.955 136.013 155.891 135.775 155.804 135.466Z" fill="#A01122"/>
<path d="M218.743 191.545C218.193 189.159 216.587 188.076 214.299 187.644C217.4 187.129 218.75 185.18 218.963 182.187C219.36 184.908 220.383 187.062 223.419 187.627C220.79 188.161 219.442 189.781 218.958 192.329C218.894 192.092 218.831 191.854 218.743 191.545Z" fill="#A01122"/>
<path d="M358.046 91.6167C357.495 89.2305 355.89 88.1478 353.602 87.7158C356.703 87.2008 358.053 85.252 358.266 82.259C358.663 84.9794 359.685 87.1339 362.722 87.6986C360.093 88.2333 358.745 89.8529 358.26 92.401C358.197 92.1635 358.134 91.9259 358.046 91.6167Z" fill="#A01122"/>
<path d="M100.024 202.88C99.474 200.494 97.8683 199.411 95.5801 198.979C98.6817 198.464 100.031 196.515 100.245 193.522C100.641 196.243 101.664 198.397 104.7 198.962C102.071 199.496 100.724 201.116 100.239 203.664C100.176 203.427 100.112 203.189 100.024 202.88Z" fill="#A01122"/>
<path d="M385.416 337.914C384.801 335.247 383.007 334.037 380.449 333.554C383.916 332.979 385.424 330.801 385.662 327.456C386.106 330.496 387.249 332.904 390.643 333.535C387.704 334.133 386.198 335.943 385.656 338.791C385.585 338.525 385.514 338.26 385.416 337.914Z" fill="#ECB54E"/>
<path d="M75.3264 345.591C74.7114 342.924 72.9168 341.714 70.3594 341.232C73.8259 340.656 75.3343 338.478 75.5726 335.133C76.0157 338.173 77.1589 340.581 80.5527 341.212C77.6141 341.81 76.1081 343.62 75.5664 346.468C75.4955 346.202 75.4245 345.937 75.3264 345.591Z" fill="#ECB54E"/>
<path d="M120.766 72.2105C119.569 67.0169 116.074 64.6604 111.094 63.7203C117.844 62.5994 120.782 58.3578 121.246 51.8438C122.109 57.7645 124.335 62.4538 130.944 63.6829C125.221 64.8465 122.289 68.3716 121.234 73.9174C121.096 73.4004 120.957 72.8834 120.766 72.2105Z" fill="#ECB54E"/>
<path d="M509.735 168.847C508.537 163.653 505.043 161.297 500.062 160.356C506.813 159.236 509.751 154.994 510.215 148.48C511.077 154.401 513.304 159.09 519.913 160.319C514.19 161.483 511.257 165.008 510.203 170.554C510.064 170.037 509.926 169.52 509.735 168.847Z" fill="#ECB54E"/>
<path d="M375.378 34.1035C374.407 29.8924 371.573 27.9817 367.535 27.2195C373.009 26.3107 375.39 22.8715 375.767 17.5898C376.466 22.3905 378.271 26.1926 383.63 27.1891C378.99 28.1326 376.612 30.9908 375.757 35.4874C375.645 35.0682 375.533 34.649 375.378 34.1035Z" fill="#ECB54E"/>
<path d="M141.203 362.674C140.799 360.92 139.618 360.124 137.936 359.806C140.216 359.427 141.209 357.994 141.365 355.794C141.657 357.794 142.409 359.378 144.642 359.793C142.708 360.187 141.718 361.377 141.361 363.251C141.315 363.076 141.268 362.902 141.203 362.674Z" fill="#ECB54E"/>
<path d="M87.5906 408.394C86.6033 404.113 83.7225 402.171 79.6172 401.396C85.1819 400.472 87.6033 396.975 87.9859 391.605C88.6971 396.486 90.5322 400.352 95.9802 401.365C91.2629 402.324 88.8454 405.23 87.9758 409.801C87.862 409.375 87.7481 408.949 87.5906 408.394Z" fill="#A01122"/>
<path d="M440.325 202.555C439.338 198.274 436.457 196.332 432.352 195.557C437.916 194.633 440.338 191.136 440.72 185.767C441.431 190.647 443.267 194.513 448.715 195.526C443.997 196.485 441.58 199.391 440.71 203.962C440.596 203.536 440.482 203.11 440.325 202.555Z" fill="#A01122"/>
<path d="M55.407 289.362C54.8404 286.905 53.1876 285.791 50.832 285.346C54.0249 284.816 55.4142 282.81 55.6337 279.729C56.0418 282.529 57.0948 284.747 60.2206 285.328C57.514 285.879 56.1269 287.546 55.628 290.169C55.5626 289.924 55.4973 289.68 55.407 289.362Z" fill="#A01122"/>
<defs>
<linearGradient id="paint0_linear_224_536" x1="227.872" y1="356.687" x2="145.496" y2="231.323" gradientUnits="userSpaceOnUse">
<stop stop-color="#B4373F"/>
<stop offset="0.0001" stop-color="#B4373F"/>
<stop offset="0.229838" stop-color="#B4373F"/>
<stop offset="1" stop-color="white" stop-opacity="0"/>
</linearGradient>
<linearGradient id="paint1_linear_224_536" x1="245.771" y1="356.688" x2="187.118" y2="198.139" gradientUnits="userSpaceOnUse">
<stop stop-color="#F1C562"/>
<stop offset="0.0001" stop-color="#D26B30"/>
<stop offset="0.269489" stop-color="#D26B30"/>
<stop offset="1.0001" stop-color="white" stop-opacity="0"/>
</linearGradient>
<linearGradient id="paint2_linear_224_536" x1="259.491" y1="356.39" x2="289.873" y2="173.318" gradientUnits="userSpaceOnUse">
<stop stop-color="#F1C562"/>
<stop offset="0.461714" stop-color="#F1C562"/>
<stop offset="1" stop-color="white" stop-opacity="0"/>
</linearGradient>
<linearGradient id="paint3_linear_224_536" x1="281.117" y1="354.162" x2="370.754" y2="152.069" gradientUnits="userSpaceOnUse">
<stop stop-color="#F1C562"/>
<stop offset="0.0001" stop-color="#F1C562"/>
<stop offset="0.415" stop-color="#F1C562"/>
<stop offset="1" stop-color="white" stop-opacity="0"/>
</linearGradient>
<linearGradient id="paint4_linear_224_536" x1="266.203" y1="354.162" x2="272.02" y2="136.408" gradientUnits="userSpaceOnUse">
<stop stop-color="#DFA420"/>
<stop offset="0.429886" stop-color="#DFA420"/>
<stop offset="1" stop-color="white" stop-opacity="0"/>
</linearGradient>
<linearGradient id="paint5_linear_224_536" x1="296.631" y1="353.864" x2="479.556" y2="323.098" gradientUnits="userSpaceOnUse">
<stop stop-color="#B4373F"/>
<stop stop-color="#B4373F"/>
<stop offset="0.0001" stop-color="#B4373F"/>
<stop offset="0.465" stop-color="#B4373F"/>
<stop offset="1" stop-color="white" stop-opacity="0"/>
</linearGradient>
<linearGradient id="paint6_linear_224_536" x1="243.732" y1="272.159" x2="243.732" y2="285.509" gradientUnits="userSpaceOnUse">
<stop stop-color="#FFC700"/>
<stop offset="1" stop-color="#FF8A00"/>
</linearGradient>
<linearGradient id="paint7_linear_224_536" x1="69.6266" y1="167.571" x2="96.4729" y2="180.248" gradientUnits="userSpaceOnUse">
<stop stop-color="#F84229"/>
<stop offset="1" stop-color="#BC191A"/>
</linearGradient>
<linearGradient id="paint8_linear_224_536" x1="238.461" y1="78.3814" x2="253.376" y2="78.3814" gradientUnits="userSpaceOnUse">
<stop stop-color="#F1362F"/>
<stop offset="1" stop-color="#B81B26"/>
</linearGradient>
<radialGradient id="paint9_radial_224_536" cx="0" cy="0" r="1" gradientUnits="userSpaceOnUse" gradientTransform="translate(110.062 143.366) rotate(-90) scale(33.9975 31.629)">
<stop stop-color="#FFDD55"/>
<stop offset="0.1" stop-color="#FFDD55"/>
<stop offset="0.5" stop-color="#FF543E"/>
<stop offset="1" stop-color="#C837AB"/>
</radialGradient>
<radialGradient id="paint10_radial_224_536" cx="0" cy="0" r="1" gradientUnits="userSpaceOnUse" gradientTransform="translate(95.1996 108.892) rotate(78.6776) scale(15.1972 62.6592)">
<stop stop-color="#FCAE24"/>
<stop offset="0.128" stop-color="#F7B31A"/>
<stop offset="1" stop-color="#D81D26"/>
</radialGradient>
<linearGradient id="paint11_linear_224_536" x1="362.999" y1="254.097" x2="362.999" y2="221.556" gradientUnits="userSpaceOnUse">
<stop stop-color="#E9312F"/>
<stop offset="1" stop-color="#0D112A"/>
</linearGradient>
<linearGradient id="paint12_linear_224_536" x1="61.1257" y1="86.8824" x2="85.7349" y2="86.7332" gradientUnits="userSpaceOnUse">
<stop stop-color="#E43329"/>
<stop offset="1" stop-color="#A10E20"/>
</linearGradient>
</defs>
</svg>
